<?xml version="1.0" encoding="utf-8"?>
<!-- Generator: Adobe Illustrator 16.0.0, SVG Export Plug-In . SVG Version: 6.00 Build 0)  -->
<!DOCTYPE svg PUBLIC "-//W3C//DTD SVG 1.1//EN" "http://www.w3.org/Graphics/SVG/1.1/DTD/svg11.dtd">
<svg version="1.1" id="Layer_1" xmlns="http://www.w3.org/2000/svg" xmlns:xlink="http://www.w3.org/1999/xlink" x="0px" y="0px"
	 width="100px" height="100px" viewBox="0 0 100 100" enable-background="new 0 0 100 100" xml:space="preserve">
<g>
	<g>
		<path d="M57.48,98.078c-1.715-0.207-3.125-1.451-3.545-3.127L42.177,47.79c-0.173-0.671-0.175-1.375-0.008-2.049
			c0.556-2.234,2.819-3.595,5.053-3.038l47.163,11.758c1.17,0.289,2.16,1.067,2.712,2.139c1.056,2.047,0.251,4.563-1.795,5.619
			L73.242,73.81L61.693,95.826c-0.719,1.388-2.151,2.256-3.713,2.252H57.48z M52.06,52.461l7.464,29.813l7.09-13.51
			c0.393-0.748,1.003-1.358,1.751-1.752l13.385-7.087L52.06,52.461z"/>
		<path d="M25.499,31.903L13.614,20.02c-0.163-0.141-0.315-0.292-0.454-0.455c-1.498-1.75-1.294-4.382,0.454-5.88
			c1.749-1.498,4.382-1.295,5.88,0.455l11.885,11.884c0.794,0.789,1.239,1.865,1.233,2.985c-0.015,2.303-1.892,4.159-4.195,4.146
			C27.317,33.139,26.268,32.688,25.499,31.903z"/>
		<path d="M54.746,31.92c-1.621-1.635-1.61-4.275,0.024-5.896L66.654,14.14c1.562-1.337,3.864-1.337,5.425,0
			c1.75,1.498,1.952,4.13,0.455,5.88L60.691,31.945c-0.787,0.779-1.853,1.215-2.961,1.209C56.611,33.16,55.535,32.716,54.746,31.92z
			"/>
		<path d="M16.575,74.353c-1.119,0.006-2.196-0.438-2.985-1.233c-1.621-1.635-1.61-4.276,0.024-5.897l11.885-11.886
			c0.14-0.16,0.291-0.313,0.455-0.453c1.748-1.498,4.381-1.295,5.879,0.453c1.497,1.752,1.294,4.383-0.454,5.881L19.494,73.101
			c-0.787,0.78-1.854,1.217-2.961,1.211L16.575,74.353z"/>
		<path d="M39.175,22.771V6.092c0-2.303,1.867-4.17,4.17-4.17c2.302,0,4.17,1.867,4.17,4.17v16.68c0,2.303-1.868,4.17-4.17,4.17
			C41.042,26.941,39.175,25.074,39.175,22.771z"/>
		<path d="M2.439,43.621c0-2.304,1.866-4.171,4.17-4.171h16.679c2.304,0,4.171,1.867,4.171,4.171c0,2.302-1.867,4.169-4.171,4.169
			H6.609C4.305,47.79,2.439,45.923,2.439,43.621z"/>
	</g>
</g>
</svg>
