<?xml version="1.0" encoding="utf-8"?>
<!-- Generator: Adobe Illustrator 16.0.0, SVG Export Plug-In . SVG Version: 6.00 Build 0)  -->
<!DOCTYPE svg PUBLIC "-//W3C//DTD SVG 1.1//EN" "http://www.w3.org/Graphics/SVG/1.1/DTD/svg11.dtd">
<svg version="1.1" id="Layer_1" xmlns="http://www.w3.org/2000/svg" xmlns:xlink="http://www.w3.org/1999/xlink" x="0px" y="0px"
	 width="100px" height="100px" viewBox="0 0 100 100" enable-background="new 0 0 100 100" xml:space="preserve">
<g>
	<path d="M46.842,58.314c0.217-0.672,0.144-1.326-0.184-1.805c-0.293-0.525-0.802-0.918-1.503-1.164
		c-0.292-0.107-0.587-0.111-1.045-0.072c-1.089,0.092-2.013,0.777-2.358,1.762c-2.392,7.543-11.899,22.246-21.333,28.107
		c-0.5,0.281-1.063,0.844-1.149,1.582c-0.089,0.779,0.077,1.369,0.462,1.75c0.482,0.648,1.295,1.035,2.174,1.035c0,0,0,0,0,0
		c0.542,0,1.063-0.156,1.439-0.422C34.388,82.359,44.249,66.619,46.842,58.314z"/>
	<path d="M56.349,62.029c2.475-9.131-2.318-14.797-8.155-16.361c-1.362-0.391-3.049-0.503-4.754-0.359
		c-5.416,0.462-9.732,3.763-11.548,8.83c-2.257,6.326-8.602,17.615-16.832,22.789c-0.581,0.365-0.969,0.908-1.091,1.533
		c-0.122,0.621,0.03,1.256,0.427,1.787c0.482,0.65,1.295,1.037,2.175,1.037c0.542,0,1.063-0.156,1.442-0.422
		c10.153-6.23,16.849-19.283,18.969-25.311c1.136-3.143,3.773-5.187,7.056-5.466c0.895-0.077,1.814,0.014,2.757,0.248
		c1.586,0.414,6.593,2.39,4.453,10.46c-2.63,10.072-15.03,24.498-23.526,29.717c-0.498,0.283-1.061,0.848-1.145,1.584
		c-0.091,0.777,0.074,1.369,0.46,1.75c0.496,0.664,1.343,1.061,2.268,1.061c0.494,0,0.959-0.117,1.36-0.346
		C40.107,88.736,53.383,73.258,56.349,62.029z"/>
	<path d="M53.47,28.889c-5.584-1.498-11.702-1.53-17.435-0.092c-10.437,2.771-18.114,8.915-21.585,17.24l-0.222,0.384l-0.086,0.203
		c-1.191,2.811-2.423,5.718-4.865,6.575c-0.642,0.238-1.142,0.699-1.408,1.299c-0.265,0.6-0.261,1.268,0.005,1.822
		c0.388,0.879,1.358,1.471,2.415,1.471c0.353,0,0.69-0.064,0.988-0.184c4.728-1.754,6.584-6.484,7.809-9.601l0.091-0.216
		c2.923-7.018,9.387-12.132,18.209-14.403c1.438-0.394,2.997-0.658,4.767-0.808c3.222-0.275,6.571,0.03,9.803,0.887
		c12.146,3.222,22.14,15.091,17.741,31.54c-1.979,7.363-7.086,16.174-14.37,24.799c-0.442,0.488-0.646,1.137-0.557,1.777
		c0.09,0.648,0.458,1.219,1.011,1.584c0.449,0.34,1.021,0.527,1.611,0.527c0.829,0,1.583-0.354,2.057-0.953
		c7.65-8.91,13.097-18.354,15.337-26.592C80.17,46.736,68.136,32.71,53.47,28.889z"/>
	<path d="M92.168,40.719C86.998,26.75,75.946,16.707,61.05,12.438c-6.492-1.866-13.219-2.527-19.895-1.961
		c-9.256,0.788-18.08,3.85-25.502,8.847c-0.579,0.363-0.972,0.942-1.075,1.589c-0.106,0.66,0.097,1.337,0.53,1.828
		c0.768,1.027,2.5,1.264,3.742,0.484c6.598-4.502,14.479-7.256,22.791-7.963c5.951-0.506,11.971,0.082,17.874,1.747
		c13.261,3.8,23.093,12.748,27.687,25.199c0.354,0.93,1.406,1.605,2.502,1.605c0.073,0,0.146-0.003,0.221-0.009l0.548-0.057
		c0.638-0.174,1.181-0.572,1.567-1.151C92.374,42.095,92.419,41.486,92.168,40.719z"/>
	<path d="M28.725,8.329c0.238,0,0.477-0.032,0.701-0.094c3.923-1.014,8.026-1.708,12.194-2.063c1.861-0.159,3.719-0.239,5.521-0.239
		c19.333,0,30.285,9.225,34.101,13.196c0.499,0.505,1.223,0.795,1.987,0.795c0.65,0,1.264-0.212,1.728-0.597
		c0.547-0.455,0.874-1.015,0.946-1.625c0.074-0.678-0.146-1.314-0.615-1.787C79.965,10.387,67.95,1.114,47.296,1.114
		c-1.975,0-4.01,0.088-6.048,0.261c-3.817,0.326-7.996,1.012-13.18,2.166c-1.439,0.394-2.22,1.688-1.813,3.019
		C26.599,7.618,27.592,8.329,28.725,8.329z"/>
	<path d="M56.207,20.387c-5.057-1.291-10.25-1.743-15.196-1.322c-2.516,0.214-5.114,0.652-7.517,1.268
		C22.61,23.141,13.918,29.709,8.376,39.3c-0.37,0.556-0.458,1.22-0.247,1.869c0.191,0.584,0.626,1.081,1.254,1.435
		c1.139,0.642,2.855,0.194,3.62-0.953c4.842-8.452,12.19-14.044,21.847-16.623c2.144-0.587,4.341-0.98,6.532-1.167
		c4.613-0.394,8.925-0.029,13.203,1.114c16.189,4.319,30.259,20.554,24.451,42.123c-0.937,3.238-2.185,6.52-3.711,9.75
		c-0.589,1.229-0.01,2.615,1.32,3.154c0.344,0.137,0.71,0.207,1.091,0.207c1.079,0,2.045-0.561,2.454-1.422
		c1.757-3.512,3.118-7.064,4.047-10.557C90.868,43.606,74.745,25.202,56.207,20.387z"/>
	<path d="M50.818,37.275c-4.109-1.055-8.425-1.061-12.234-0.017c-7.304,1.892-13.192,7.176-15.754,14.136
		c-2.651,7.266-6.947,12.658-12.786,16.039c-1.225,0.771-1.573,2.266-0.777,3.332c0.518,0.695,1.353,1.111,2.234,1.111
		c0.5,0,0.983-0.137,1.385-0.389c6.981-4.094,12.001-10.375,14.922-18.674c1.858-5.366,6.429-9.468,12.235-10.974
		c1.099-0.3,2.055-0.475,3.102-0.564c1.986-0.173,4.062,0.025,6.281,0.568c7.549,1.974,14.261,9.402,11.156,21.044
		c-2.975,11.133-13.854,24.367-23.072,31.693c-1.066,0.885-1.165,2.445-0.262,3.355c0.443,0.594,1.186,0.949,1.987,0.949
		c0.622,0,1.216-0.209,1.663-0.58c9.802-7.758,21.427-21.984,24.677-34.17C69.49,49.469,60.674,39.932,50.818,37.275z"/>
</g>
</svg>
