<?xml version="1.0" encoding="utf-8"?>
<!-- Generator: Adobe Illustrator 16.0.0, SVG Export Plug-In . SVG Version: 6.00 Build 0)  -->
<!DOCTYPE svg PUBLIC "-//W3C//DTD SVG 1.1//EN" "http://www.w3.org/Graphics/SVG/1.1/DTD/svg11.dtd">
<svg version="1.1" id="Layer_1" xmlns="http://www.w3.org/2000/svg" xmlns:xlink="http://www.w3.org/1999/xlink" x="0px" y="0px"
	 width="100px" height="100px" viewBox="0 0 100 100" enable-background="new 0 0 100 100" xml:space="preserve">
<g>
	<path d="M80.206,36.39c2.488,0,4.828-0.97,6.589-2.73c1.757-1.758,2.725-4.099,2.725-6.591c-0.001-2.492-0.969-4.833-2.727-6.589
		c-1.758-1.761-4.098-2.73-6.588-2.73c-2.486,0-4.825,0.97-6.586,2.73c-3.63,3.633-3.629,9.546,0.002,13.18
		C75.378,35.42,77.717,36.39,80.206,36.39z M83.051,29.88c-0.717,0.717-1.748,1.128-2.827,1.128s-2.108-0.411-2.824-1.128
		c-1.559-1.56-1.559-4.097-0.001-5.654c0.754-0.755,1.757-1.17,2.825-1.17c1.067,0,2.071,0.416,2.827,1.17
		C84.606,25.784,84.606,28.32,83.051,29.88z"/>
	<path d="M91.657,7.931L65.42,7.935l-1.128-0.003c-1.848,0-4.939,0-7.074,2.139L17.126,50.157c-1.247,1.247-1.934,2.904-1.934,4.666
		c0,1.764,0.687,3.422,1.934,4.667l30.643,30.644c1.247,1.247,2.904,1.935,4.667,1.935c1.762,0,3.419-0.687,4.666-1.935
		l40.084-40.089c2.162-2.153,2.15-5.061,2.14-7.63l0.004-26.812C99.33,11.373,95.887,7.931,91.657,7.931z M53.287,86.748
		l-0.899-1.229L21.742,54.875l-1.061,1.061l1.061-1.163l40.056-40.06c0.253-0.169,1.092-0.254,2.493-0.254l1.125,0.004l26.24-0.004
		c0.631,0,1.144,0.514,1.144,1.146l-0.005,26.253l0.005,0.601c0.003,0.979,0.009,2.62-0.225,2.972L52.494,85.512l0.795,1.235
		C53.288,86.747,53.288,86.748,53.287,86.748z"/>
	<path d="M37.865,85.52L7.219,54.875v-0.103l40.085-40.085c0.253-0.248,2.949-2.668,4.59-4.135l2.916-2.608l-5.04-0.013
		c-1.848,0-4.939,0-7.074,2.139L2.604,50.157c-1.247,1.247-1.934,2.904-1.934,4.666c0,1.764,0.687,3.422,1.934,4.667l30.643,30.644
		c1.247,1.247,2.904,1.935,4.667,1.935c1.126,0,2.751-0.637,3.065-0.765l2.209-0.897l-1.765-1.603
		C40.591,88.048,38.33,85.985,37.865,85.52z"/>
</g>
</svg>
