<?xml version="1.0" encoding="utf-8"?>
<!-- Generator: Adobe Illustrator 16.0.0, SVG Export Plug-In . SVG Version: 6.00 Build 0)  -->
<!DOCTYPE svg PUBLIC "-//W3C//DTD SVG 1.1//EN" "http://www.w3.org/Graphics/SVG/1.1/DTD/svg11.dtd">
<svg version="1.1" id="Layer_1" xmlns="http://www.w3.org/2000/svg" xmlns:xlink="http://www.w3.org/1999/xlink" x="0px" y="0px"
	 width="100px" height="100px" viewBox="0 0 100 100" enable-background="new 0 0 100 100" xml:space="preserve">
<g>
	<path d="M93.284,6.718c-3.511-3.51-8.177-5.443-13.141-5.443H19.858c-10.247,0-18.584,8.337-18.584,18.584v60.283
		c0,10.247,8.337,18.584,18.584,18.584h43.232c3.354,0,6.509-1.306,8.88-3.678l23.077-23.077c2.372-2.373,3.678-5.526,3.678-8.88
		V19.858C98.727,14.896,96.794,10.229,93.284,6.718z M19.859,8.303h60.281c6.365,0.007,11.55,5.191,11.558,11.556v41.699H74.114
		c-6.925,0-12.559,5.634-12.559,12.558v17.584H19.859c-6.365-0.007-11.55-5.19-11.557-11.556V19.859
		C8.31,13.494,13.494,8.31,19.859,8.303z M68.585,74.115c0.004-3.046,2.484-5.526,5.53-5.53h14.379L68.585,88.494V74.115z"/>
	<path d="M28.901,32.418h42.197c1.938,0,3.516-1.577,3.516-3.516c0-1.938-1.577-3.515-3.516-3.515H28.901
		c-1.938,0-3.515,1.577-3.515,3.515C25.387,30.841,26.964,32.418,28.901,32.418z"/>
	<path d="M28.901,50.502h42.197c1.938,0,3.516-1.577,3.516-3.515s-1.577-3.515-3.516-3.515H28.901c-1.938,0-3.515,1.577-3.515,3.515
		S26.964,50.502,28.901,50.502z"/>
</g>
</svg>
