<?xml version="1.0" encoding="utf-8"?>
<!-- Generator: Adobe Illustrator 16.0.0, SVG Export Plug-In . SVG Version: 6.00 Build 0)  -->
<!DOCTYPE svg PUBLIC "-//W3C//DTD SVG 1.1//EN" "http://www.w3.org/Graphics/SVG/1.1/DTD/svg11.dtd">
<svg version="1.1" id="Layer_1" xmlns="http://www.w3.org/2000/svg" xmlns:xlink="http://www.w3.org/1999/xlink" x="0px" y="0px"
	 width="100px" height="100px" viewBox="0 0 100 100" enable-background="new 0 0 100 100" xml:space="preserve">
<g id="record">
	<path stroke="#000000" stroke-miterlimit="10" d="M91.39,0.817H22.14c-0.687-0.003-1.348,0.212-1.836,0.6L1.6,17.975
		c-0.484,0.393-0.754,0.92-0.75,1.471v73.528c0,3.429,3.474,6.209,7.76,6.209h82.78c4.286,0,7.76-2.781,7.76-6.209V7.026
		C99.15,3.598,95.676,0.817,91.39,0.817z M93.977,91.002c0,1.144-1.158,2.071-2.586,2.071H8.61c-1.428,0-2.587-0.927-2.587-2.071
		V26.541h18.704c1.429,0,2.587-0.926,2.587-2.071V6.926H91.39c1.428,0,2.586,0.927,2.586,2.071V91.002z"/>
	<rect x="22.858" y="35.189" width="54.663" height="5.766"/>
	<rect x="22.764" y="52.534" width="54.663" height="5.765"/>
	<rect x="22.953" y="69.878" width="54.663" height="5.766"/>
</g>
</svg>
