<?xml version="1.0" encoding="utf-8"?>
<!-- Generator: Adobe Illustrator 16.0.0, SVG Export Plug-In . SVG Version: 6.00 Build 0)  -->
<!DOCTYPE svg PUBLIC "-//W3C//DTD SVG 1.1//EN" "http://www.w3.org/Graphics/SVG/1.1/DTD/svg11.dtd">
<svg version="1.1" id="Layer_1" xmlns="http://www.w3.org/2000/svg" xmlns:xlink="http://www.w3.org/1999/xlink" x="0px" y="0px"
	 width="100px" height="100px" viewBox="0 0 100 100" enable-background="new 0 0 100 100" xml:space="preserve">
<g id="relationship">
	
		<circle stroke="#000000" stroke-width="3" stroke-linecap="round" stroke-linejoin="round" stroke-miterlimit="10" cx="23.443" cy="50.399" r="20.923"/>
	<path stroke="#000000" stroke-width="3" stroke-linecap="round" stroke-linejoin="round" stroke-miterlimit="10" d="M76.555,29.476
		c-11.533,0-20.92,9.387-20.92,20.923s9.385,20.923,20.92,20.923c11.537,0,20.924-9.387,20.924-20.923S88.092,29.476,76.555,29.476z
		 M76.555,67.299c-9.316,0-16.898-7.58-16.898-16.899S67.238,33.5,76.555,33.5c9.318,0,16.902,7.582,16.902,16.899
		C93.457,59.718,85.873,67.299,76.555,67.299z"/>
	<path stroke="#000000" stroke-width="4" stroke-linecap="round" stroke-linejoin="round" stroke-miterlimit="10" d="M25.219,21.375
		c0.323,0,0.646-0.157,0.886-0.467c0.074-0.098,7.578-9.661,20.86-9.661c0.127,0,0.259,0.001,0.389,0.004
		C58.049,11.4,64.625,16.45,66.939,18.59l-5.889,0.132c-0.666,0.016-1.195,0.678-1.182,1.483c0.014,0.793,0.551,1.429,1.207,1.429
		c0.008,0,0.016,0,0.023,0l10.166-0.229L70.289,9.947c-0.07-0.8-0.678-1.387-1.324-1.3c-0.664,0.081-1.146,0.798-1.078,1.598
		l0.512,6.013c-2.615-2.448-9.59-7.759-21.019-7.919c-14.601-0.167-22.707,10.15-23.047,10.588c-0.453,0.591-0.424,1.511,0.064,2.06
		C24.63,21.248,24.923,21.375,25.219,21.375z"/>
	<path stroke="#000000" stroke-width="4" stroke-linecap="round" stroke-linejoin="round" stroke-miterlimit="10" d="M74.045,78.995
		c-0.092,0.099-9.34,9.984-22.938,9.753c-10.691-0.149-17.267-5.197-19.585-7.337l5.88-0.135c0.668-0.015,1.197-0.678,1.185-1.481
		c-0.014-0.805-0.561-1.432-1.229-1.429l-10.168,0.229l0.979,11.459c0.064,0.75,0.589,1.307,1.2,1.307
		c0.041,0,0.082-0.001,0.125-0.007c0.664-0.084,1.146-0.799,1.077-1.6l-0.514-6.015c2.617,2.446,9.593,7.76,21.021,7.922
		c0.143,0.002,0.281,0.003,0.422,0.003c14.281,0,23.756-10.067,24.156-10.5c0.498-0.539,0.539-1.459,0.096-2.055
		C75.303,78.508,74.543,78.457,74.045,78.995z"/>
</g>
</svg>
