<?xml version="1.0" encoding="utf-8"?>
<!-- Generator: Adobe Illustrator 16.0.0, SVG Export Plug-In . SVG Version: 6.00 Build 0)  -->
<!DOCTYPE svg PUBLIC "-//W3C//DTD SVG 1.1//EN" "http://www.w3.org/Graphics/SVG/1.1/DTD/svg11.dtd">
<svg version="1.1" id="Layer_1" xmlns="http://www.w3.org/2000/svg" xmlns:xlink="http://www.w3.org/1999/xlink" x="0px" y="0px"
	 width="100px" height="100px" viewBox="0 0 100 100" enable-background="new 0 0 100 100" xml:space="preserve">
<g id="variant">
	<path fill-rule="evenodd" clip-rule="evenodd" stroke="#000000" stroke-width="2" stroke-miterlimit="10" d="M75.967,1.336
		c-12.56-0.012-22.65,10.118-22.633,22.719c0.016,12.505,10.202,22.703,22.609,22.637c12.556-0.067,22.666-10.279,22.571-22.798
		C98.42,11.395,88.377,1.348,75.967,1.336z M72.781,6.376c-4.856,4.806-9.712,9.613-14.444,14.298
		C59.226,13.287,66.289,7.033,72.781,6.376z M59.389,31.198c-0.305-1.023-0.668-2.093-0.919-3.19
		c-0.059-0.257,0.196-0.668,0.421-0.896c6.715-6.756,13.44-13.504,20.189-20.228c0.249-0.248,0.785-0.406,1.124-0.329
		c1.007,0.228,1.982,0.592,3.059,0.932C75.263,15.434,67.392,23.251,59.389,31.198z M62.123,35.579
		c8.493-8.451,16.925-16.839,25.483-25.354c0.608,0.664,1.334,1.46,2.033,2.227c-8.419,8.354-16.859,16.729-25.503,25.308
		C63.589,37.168,62.84,36.355,62.123,35.579z M73.399,40.548c-0.9,0.916-1.694,1.175-2.819,0.678c-0.619-0.271-1.26-0.494-1.97-0.77
		c7.969-7.895,15.85-15.701,23.789-23.564c0,0-0.001-0.001-0.001-0.001c-0.001-0.004-0.003-0.006-0.005-0.01
		c-0.029-0.041-0.014-0.027,0,0c0.003,0.005,0.003,0.006,0.008,0.01c0,0-0.001,0.001-0.001,0.001
		c1.437,3.137,1.434,3.136-0.971,5.544C85.409,28.464,79.367,34.471,73.399,40.548z M79.091,41.658
		c4.863-4.853,9.706-9.685,14.449-14.417C92.883,33.963,85.848,41.077,79.091,41.658z"/>
	<path fill-rule="evenodd" clip-rule="evenodd" stroke="#000000" stroke-width="2" stroke-miterlimit="10" d="M75.967,53.309
		c-12.56-0.011-22.65,10.118-22.633,22.719c0.016,12.506,10.202,22.703,22.609,22.637C88.499,98.6,98.609,88.387,98.515,75.868
		C98.42,63.368,88.377,53.322,75.967,53.309z M72.781,58.35c-4.856,4.806-9.712,9.612-14.444,14.297
		C59.226,65.26,66.289,59.005,72.781,58.35z M59.389,83.173c-0.305-1.025-0.668-2.095-0.919-3.191
		c-0.059-0.257,0.196-0.67,0.421-0.896c6.715-6.756,13.44-13.503,20.189-20.227c0.249-0.248,0.785-0.406,1.124-0.33
		c1.007,0.227,1.982,0.591,3.059,0.933C75.263,67.407,67.392,75.225,59.389,83.173z M62.123,87.551
		c8.493-8.448,16.925-16.839,25.483-25.354c0.608,0.667,1.334,1.462,2.033,2.227c-8.419,8.357-16.859,16.73-25.503,25.309
		C63.589,89.141,62.84,88.33,62.123,87.551z M73.399,92.521c-0.9,0.916-1.694,1.174-2.819,0.677c-0.619-0.272-1.26-0.494-1.97-0.77
		c7.969-7.894,15.85-15.7,23.789-23.563c0-0.001-0.001-0.002-0.001-0.003c-0.001-0.003-0.003-0.006-0.005-0.009
		c-0.029-0.04-0.014-0.026,0,0c0.003,0.004,0.003,0.005,0.008,0.01c0,0-0.001,0.001-0.001,0.002
		c1.437,3.137,1.434,3.136-0.971,5.543C85.409,80.438,79.367,86.443,73.399,92.521z M79.091,93.631
		c4.863-4.853,9.706-9.685,14.449-14.417C92.883,85.937,85.848,93.05,79.091,93.631z"/>
	<path fill-rule="evenodd" clip-rule="evenodd" stroke="#000000" stroke-width="2" stroke-miterlimit="10" d="M24.121,53.309
		c-12.56-0.011-22.65,10.118-22.633,22.719C1.505,88.535,11.69,98.731,24.097,98.666C36.653,98.6,46.763,88.387,46.669,75.868
		C46.574,63.368,36.532,53.322,24.121,53.309z M20.935,58.35c-4.855,4.806-9.711,9.612-14.443,14.297
		C7.38,65.26,14.443,59.005,20.935,58.35z M7.544,83.173c-0.306-1.025-0.669-2.095-0.92-3.191c-0.059-0.257,0.196-0.67,0.421-0.896
		c6.715-6.756,13.44-13.503,20.189-20.227c0.249-0.248,0.784-0.406,1.124-0.33c1.008,0.227,1.983,0.591,3.06,0.933
		C23.417,67.407,15.546,75.225,7.544,83.173z M10.276,87.551c8.493-8.448,16.926-16.839,25.483-25.354
		c0.608,0.667,1.334,1.462,2.033,2.227c-8.42,8.357-16.859,16.73-25.503,25.309C11.744,89.141,10.995,88.33,10.276,87.551z
		 M21.553,92.521c-0.9,0.916-1.694,1.174-2.819,0.677c-0.618-0.272-1.259-0.494-1.97-0.77c7.97-7.894,15.85-15.7,23.789-23.563
		c0-0.001,0-0.002,0-0.003c-0.001-0.003-0.003-0.006-0.005-0.009c-0.03-0.04-0.015-0.026,0,0c0.003,0.004,0.003,0.005,0.007,0.01
		c0,0-0.001,0.001-0.001,0.002c1.437,3.137,1.434,3.136-0.97,5.543C33.563,80.438,27.521,86.443,21.553,92.521z M27.245,93.631
		c4.863-4.853,9.707-9.685,14.449-14.417C41.038,85.937,34.002,93.05,27.245,93.631z"/>
	<path fill-rule="evenodd" clip-rule="evenodd" stroke="#000000" stroke-width="2" stroke-miterlimit="10" d="M24.045,46.678
		C11.327,46.527,1.349,36.38,1.486,23.736C1.62,11.273,11.928,1.123,24.231,1.337c12.542,0.218,22.574,10.367,22.44,22.7
		C46.534,36.65,36.367,46.825,24.045,46.678z M23.986,41.998c9.973,0.038,18.014-7.96,18.039-17.94
		c0.025-9.946-7.896-17.97-17.808-18.038c-9.962-0.07-18.084,7.948-18.11,17.874C6.081,33.893,14.048,41.959,23.986,41.998z"/>
</g>
</svg>
