<?xml version="1.0" encoding="utf-8"?>
<!-- Generator: Adobe Illustrator 16.0.0, SVG Export Plug-In . SVG Version: 6.00 Build 0)  -->
<!DOCTYPE svg PUBLIC "-//W3C//DTD SVG 1.1//EN" "http://www.w3.org/Graphics/SVG/1.1/DTD/svg11.dtd">
<svg version="1.1" id="Layer_1" xmlns="http://www.w3.org/2000/svg" xmlns:xlink="http://www.w3.org/1999/xlink" x="0px" y="0px"
	 width="599.76px" height="599.76px" viewBox="0 0 599.76 599.76" enable-background="new 0 0 599.76 599.76" xml:space="preserve">
<polygon fill="none" stroke="#000000" stroke-miterlimit="10" points="70.858,225.466 158.337,105.063 299.88,59.072 
	441.423,105.063 528.901,225.466 528.901,374.293 441.423,494.697 299.88,540.688 158.337,494.697 70.858,374.293 "/>
<line fill="none" stroke="#000000" stroke-miterlimit="10" x1="299.88" y1="59.072" x2="441.423" y2="494.697"/>
<line fill="none" stroke="#000000" stroke-miterlimit="10" x1="299.88" y1="59.072" x2="528.901" y2="374.293"/>
<line fill="none" stroke="#000000" stroke-miterlimit="10" x1="528.901" y1="225.466" x2="299.88" y2="59.072"/>
<line fill="none" stroke="#000000" stroke-miterlimit="10" x1="299.88" y1="59.072" x2="299.88" y2="540.688"/>
<line fill="none" stroke="#000000" stroke-miterlimit="10" x1="158.337" y1="494.697" x2="299.88" y2="59.072"/>
<line fill="none" stroke="#000000" stroke-miterlimit="10" x1="299.88" y1="59.072" x2="70.858" y2="374.293"/>
<line fill="none" stroke="#000000" stroke-miterlimit="10" x1="70.858" y1="225.466" x2="299.88" y2="59.072"/>
<line fill="none" stroke="#000000" stroke-miterlimit="10" x1="441.423" y1="105.063" x2="528.901" y2="374.293"/>
<line fill="none" stroke="#000000" stroke-miterlimit="10" x1="441.423" y1="105.063" x2="441.423" y2="494.697"/>
<line fill="none" stroke="#000000" stroke-miterlimit="10" x1="441.423" y1="105.063" x2="299.88" y2="540.688"/>
<line fill="none" stroke="#000000" stroke-miterlimit="10" x1="441.423" y1="105.063" x2="158.337" y2="494.697"/>
<line fill="none" stroke="#000000" stroke-miterlimit="10" x1="441.423" y1="105.063" x2="70.858" y2="374.293"/>
<line fill="none" stroke="#000000" stroke-miterlimit="10" x1="70.858" y1="225.466" x2="441.423" y2="105.063"/>
<line fill="none" stroke="#000000" stroke-miterlimit="10" x1="158.337" y1="105.063" x2="441.423" y2="105.063"/>
<line fill="none" stroke="#000000" stroke-miterlimit="10" x1="528.901" y1="225.466" x2="441.423" y2="494.697"/>
<line fill="none" stroke="#000000" stroke-miterlimit="10" x1="299.88" y1="540.688" x2="528.901" y2="225.466"/>
<line fill="none" stroke="#000000" stroke-miterlimit="10" x1="158.337" y1="494.697" x2="528.901" y2="225.466"/>
<line fill="none" stroke="#000000" stroke-miterlimit="10" x1="70.858" y1="374.293" x2="528.901" y2="225.466"/>
<line fill="none" stroke="#000000" stroke-miterlimit="10" x1="70.858" y1="225.466" x2="528.901" y2="225.466"/>
<line fill="none" stroke="#000000" stroke-miterlimit="10" x1="158.337" y1="105.063" x2="528.901" y2="225.466"/>
<line fill="none" stroke="#000000" stroke-miterlimit="10" x1="528.901" y1="374.293" x2="299.88" y2="540.688"/>
<line fill="none" stroke="#000000" stroke-miterlimit="10" x1="158.337" y1="494.697" x2="528.901" y2="374.293"/>
<line fill="none" stroke="#000000" stroke-miterlimit="10" x1="528.901" y1="374.293" x2="70.858" y2="374.293"/>
<line fill="none" stroke="#000000" stroke-miterlimit="10" x1="70.858" y1="225.466" x2="528.901" y2="374.293"/>
<line fill="none" stroke="#000000" stroke-miterlimit="10" x1="158.337" y1="105.063" x2="528.901" y2="374.293"/>
<line fill="none" stroke="#000000" stroke-miterlimit="10" x1="441.423" y1="494.697" x2="158.337" y2="494.697"/>
<line fill="none" stroke="#000000" stroke-miterlimit="10" x1="441.423" y1="494.697" x2="70.858" y2="374.293"/>
<line fill="none" stroke="#000000" stroke-miterlimit="10" x1="70.858" y1="225.466" x2="441.423" y2="494.697"/>
<line fill="none" stroke="#000000" stroke-miterlimit="10" x1="158.337" y1="105.063" x2="441.423" y2="494.697"/>
<line fill="none" stroke="#000000" stroke-miterlimit="10" x1="299.88" y1="540.688" x2="70.858" y2="374.293"/>
<line fill="none" stroke="#000000" stroke-miterlimit="10" x1="70.858" y1="225.466" x2="299.88" y2="540.688"/>
<line fill="none" stroke="#000000" stroke-miterlimit="10" x1="158.337" y1="105.063" x2="299.88" y2="540.688"/>
<line fill="none" stroke="#000000" stroke-miterlimit="10" x1="158.337" y1="494.697" x2="70.858" y2="225.466"/>
<line fill="none" stroke="#000000" stroke-miterlimit="10" x1="158.337" y1="105.063" x2="158.337" y2="494.697"/>
<line fill="none" stroke="#000000" stroke-miterlimit="10" x1="70.858" y1="374.293" x2="158.337" y2="105.063"/>
</svg>
