<?xml version="1.0" encoding="utf-8"?>
<!-- Generator: Adobe Illustrator 16.0.0, SVG Export Plug-In . SVG Version: 6.00 Build 0)  -->
<!DOCTYPE svg PUBLIC "-//W3C//DTD SVG 1.1//EN" "http://www.w3.org/Graphics/SVG/1.1/DTD/svg11.dtd">
<svg version="1.1" id="Layer_1" xmlns="http://www.w3.org/2000/svg" xmlns:xlink="http://www.w3.org/1999/xlink" x="0px" y="0px"
	 width="599.76px" height="599.76px" viewBox="0 0 599.76 599.76" enable-background="new 0 0 599.76 599.76" xml:space="preserve">
<polygon fill="none" stroke="#000000" stroke-miterlimit="10" points="70.858,225.466 158.337,105.063 299.88,59.072 
	441.423,105.063 528.901,225.466 528.901,374.293 441.423,494.697 299.88,540.688 158.337,494.697 70.858,374.293 "/>
<line fill="none" stroke="#000000" stroke-miterlimit="10" x1="299.88" y1="59.072" x2="441.423" y2="494.697"/>
<line fill="none" stroke="#000000" stroke-miterlimit="10" x1="299.88" y1="59.072" x2="528.901" y2="374.293"/>
<line fill="none" stroke="#000000" stroke-miterlimit="10" x1="528.901" y1="225.466" x2="299.88" y2="59.072"/>
<line fill="none" stroke="#000000" stroke-miterlimit="10" x1="299.88" y1="59.072" x2="299.88" y2="540.688"/>
<line fill="none" stroke="#000000" stroke-miterlimit="10" x1="158.337" y1="494.697" x2="299.88" y2="59.072"/>
<line fill="none" stroke="#000000" stroke-miterlimit="10" x1="299.88" y1="59.072" x2="70.858" y2="374.293"/>
<line fill="none" stroke="#000000" stroke-miterlimit="10" x1="70.858" y1="225.466" x2="299.88" y2="59.072"/>
<line fill="none" stroke="#000000" stroke-miterlimit="10" x1="441.423" y1="105.063" x2="528.901" y2="374.293"/>
<line fill="none" stroke="#000000" stroke-miterlimit="10" x1="441.423" y1="105.063" x2="441.423" y2="494.697"/>
<line fill="none" stroke="#000000" stroke-miterlimit="10" x1="441.423" y1="105.063" x2="299.88" y2="540.688"/>
<line fill="none" stroke="#000000" stroke-miterlimit="10" x1="441.423" y1="105.063" x2="158.337" y2="494.697"/>
<line fill="none" stroke="#000000" stroke-miterlimit="10" x1="441.423" y1="105.063" x2="70.858" y2="374.293"/>
<line fill="none" stroke="#000000" stroke-miterlimit="10" x1="70.858" y1="225.466" x2="441.423" y2="105.063"/>
<line fill="none" stroke="#000000" stroke-miterlimit="10" x1="158.337" y1="105.063" x2="441.423" y2="105.063"/>
<line fill="none" stroke="#000000" stroke-miterlimit="10" x1="528.901" y1="225.466" x2="441.423" y2="494.697"/>
<line fill="none" stroke="#000000" stroke-miterlimit="10" x1="299.88" y1="540.688" x2="528.901" y2="225.466"/>
<line fill="none" stroke="#000000" stroke-miterlimit="10" x1="158.337" y1="494.697" x2="528.901" y2="225.466"/>
<line fill="none" stroke="#000000" stroke-miterlimit="10" x1="70.858" y1="374.293" x2="528.901" y2="225.466"/>
<line fill="none" stroke="#000000" stroke-miterlimit="10" x1="70.858" y1="225.466" x2="528.901" y2="225.466"/>
<line fill="none" stroke="#000000" stroke-miterlimit="10" x1="158.337" y1="105.063" x2="528.901" y2="225.466"/>
<line fill="none" stroke="#000000" stroke-miterlimit="10" x1="528.901" y1="374.293" x2="299.88" y2="540.688"/>
<line fill="none" stroke="#000000" stroke-miterlimit="10" x1="158.337" y1="494.697" x2="528.901" y2="374.293"/>
<line fill="none" stroke="#000000" stroke-miterlimit="10" x1="528.901" y1="374.293" x2="70.858" y2="374.293"/>
<line fill="none" stroke="#000000" stroke-miterlimit="10" x1="70.858" y1="225.466" x2="528.901" y2="374.293"/>
<line fill="none" stroke="#000000" stroke-miterlimit="10" x1="158.337" y1="105.063" x2="528.901" y2="374.293"/>
<line fill="none" stroke="#000000" stroke-miterlimit="10" x1="441.423" y1="494.697" x2="158.337" y2="494.697"/>
<line fill="none" stroke="#000000" stroke-miterlimit="10" x1="441.423" y1="494.697" x2="70.858" y2="374.293"/>
<line fill="none" stroke="#000000" stroke-miterlimit="10" x1="70.858" y1="225.466" x2="441.423" y2="494.697"/>
<line fill="none" stroke="#000000" stroke-miterlimit="10" x1="158.337" y1="105.063" x2="441.423" y2="494.697"/>
<line fill="none" stroke="#000000" stroke-miterlimit="10" x1="299.88" y1="540.688" x2="70.858" y2="374.293"/>
<line fill="none" stroke="#000000" stroke-miterlimit="10" x1="70.858" y1="225.466" x2="299.88" y2="540.688"/>
<line fill="none" stroke="#000000" stroke-miterlimit="10" x1="158.337" y1="105.063" x2="299.88" y2="540.688"/>
<line fill="none" stroke="#000000" stroke-miterlimit="10" x1="158.337" y1="494.697" x2="70.858" y2="225.466"/>
<line fill="none" stroke="#000000" stroke-miterlimit="10" x1="158.337" y1="105.063" x2="158.337" y2="494.697"/>
<line fill="none" stroke="#000000" stroke-miterlimit="10" x1="70.858" y1="374.293" x2="158.337" y2="105.063"/>
<path fill="none" stroke="#000000" stroke-miterlimit="10" d="M265.226,94.638c0,19.139,15.515,34.654,34.654,34.654
	s34.654-15.515,34.654-34.654s-28.623-34.654-34.654-34.654C293.817,59.984,265.226,75.499,265.226,94.638z"/>
<path fill="none" stroke="#000000" stroke-miterlimit="10" d="M151.501,154.11c11.25,15.484,32.92,18.916,48.404,7.666
	c15.484-11.25,18.916-32.92,7.667-48.404c-11.25-15.484-43.525-11.212-48.405-7.667C154.263,109.269,140.251,138.626,151.501,154.11
	z"/>
<path fill="none" stroke="#000000" stroke-miterlimit="10" d="M94.452,269.069c18.203,5.915,37.751-4.046,43.666-22.249
	c5.914-18.203-4.047-37.751-22.249-43.666c-18.202-5.914-41.803,16.513-43.667,22.249C70.329,231.168,76.249,263.155,94.452,269.069
	z"/>
<path fill="none" stroke="#000000" stroke-miterlimit="10" d="M115.869,395.605c18.204-5.915,28.163-25.462,22.249-43.666
	c-5.914-18.203-25.463-28.163-43.666-22.249c-18.201,5.914-24.113,37.93-22.25,43.666
	C74.077,379.123,97.667,401.521,115.869,395.605z"/>
<path fill="none" stroke="#000000" stroke-miterlimit="10" d="M207.573,485.387c11.25-15.485,7.817-37.153-7.667-48.404
	c-15.483-11.25-37.153-7.818-48.404,7.667c-11.248,15.483,2.787,44.859,7.666,48.405
	C164.073,496.617,196.323,500.872,207.573,485.387z"/>
<path fill="none" stroke="#000000" stroke-miterlimit="10" d="M334.535,504.12c0-19.141-15.515-34.653-34.653-34.653
	c-19.14,0-34.653,15.513-34.654,34.654c0.001,19.138,28.623,34.654,34.654,34.654C305.943,538.773,334.535,523.26,334.535,504.12z"
	/>
<path fill="none" stroke="#000000" stroke-miterlimit="10" d="M448.261,444.649c-11.251-15.485-32.92-18.916-48.404-7.667
	c-15.484,11.25-18.916,32.919-7.666,48.405c11.249,15.482,43.525,11.211,48.404,7.667
	C445.498,489.49,459.511,460.133,448.261,444.649z"/>
<path fill="none" stroke="#000000" stroke-miterlimit="10" d="M505.31,329.689c-18.203-5.915-37.75,4.046-43.666,22.249
	c-5.914,18.202,4.046,37.75,22.25,43.666c18.201,5.913,41.803-16.514,43.666-22.249C529.433,367.59,523.513,335.604,505.31,329.689z
	"/>
<path fill="none" stroke="#000000" stroke-miterlimit="10" d="M483.893,203.152c-18.204,5.915-28.162,25.463-22.249,43.667
	c5.914,18.202,25.462,28.163,43.666,22.249c18.201-5.915,24.113-37.931,22.25-43.667
	C525.685,219.635,502.095,197.238,483.893,203.152z"/>
<path fill="none" stroke="#000000" stroke-miterlimit="10" d="M392.188,113.371c-11.25,15.486-7.816,37.153,7.667,48.405
	c15.483,11.25,37.153,7.817,48.404-7.667c11.247-15.484-2.788-44.86-7.666-48.405C435.688,102.141,403.438,97.887,392.188,113.371z"
	/>
</svg>
