<?xml version="1.0" encoding="utf-8"?>
<!-- Generator: Adobe Illustrator 16.0.0, SVG Export Plug-In . SVG Version: 6.00 Build 0)  -->
<!DOCTYPE svg PUBLIC "-//W3C//DTD SVG 1.1//EN" "http://www.w3.org/Graphics/SVG/1.1/DTD/svg11.dtd">
<svg version="1.1" id="Layer_1" xmlns="http://www.w3.org/2000/svg" xmlns:xlink="http://www.w3.org/1999/xlink" x="0px" y="0px"
	 width="100px" height="100px" viewBox="0 0 100 100" enable-background="new 0 0 100 100" xml:space="preserve">
<path d="M93.035,48.88c-1.057-2.263-2.963-3.869-5.512-4.643l-1.222-0.368c-2.646-0.795-4.241-1.274-6.917-2.542
	c-0.914-0.432-1.404-1.322-2.192-2.857c-0.386-0.752-0.823-1.604-1.386-2.436c-5.146-7.606-16.9-11.468-25.862-11.315
	c-0.28,0.004-0.925,0.056-1.676,0.125c-1.205-5.604-4.335-17.695-9.611-21.823c-0.886-0.693-2.086-0.832-3.108-0.36
	c-7.003,3.239-11.143,17.404-17.317,40.248c-2.164,8.005-4.4,16.282-6.789,23.377c-1.648,4.308-3.296,7.85-5.038,10.827
	c-0.837,1.43-0.355,3.268,1.075,4.104c1.43,0.836,3.267,0.355,4.104-1.075c1.917-3.277,3.712-7.128,5.485-11.771
	c0.015-0.037,0.028-0.074,0.041-0.112c2.455-7.282,4.722-15.672,6.915-23.785c3.656-13.529,8.108-30.001,12.437-35.044
	c2.954,4.291,5.441,13.546,6.44,19.19c0.274,1.55,1.7,2.618,3.265,2.462c1.584-0.165,3.519-0.351,3.866-0.363
	c7.173-0.121,16.894,2.897,20.805,8.678c0.359,0.531,0.679,1.154,1.018,1.813c0.964,1.879,2.164,4.218,4.965,5.542
	c3.081,1.459,4.941,2.018,7.756,2.864l1.204,0.363c1.185,0.359,1.595,0.959,1.819,1.442c0.896,1.916,0.28,5.862-1.605,10.296
	c-2.597,6.103-15.601,8.378-27.323,7.934c-0.063-0.002-0.127-0.003-0.19-0.003c-4.951,0-11.05,7.411-14.27,11.868
	c-0.073,0.102-0.14,0.207-0.199,0.316c-2.089,3.814-3.892,8.026-5.38,11.644c-0.63,1.532,0.101,3.285,1.633,3.916
	c0.374,0.153,0.76,0.227,1.141,0.227c1.18,0,2.298-0.701,2.775-1.859c1.404-3.412,3.093-7.363,5.005-10.882
	c4.218-5.804,8.107-9.089,9.255-9.23c6.491,0.241,28.084,0.146,33.076-11.581C93.387,59.661,95.171,53.452,93.035,48.88z"/>
</svg>
