<?xml version="1.0" encoding="utf-8"?>
<!-- Generator: Adobe Illustrator 16.0.0, SVG Export Plug-In . SVG Version: 6.00 Build 0)  -->
<!DOCTYPE svg PUBLIC "-//W3C//DTD SVG 1.1//EN" "http://www.w3.org/Graphics/SVG/1.1/DTD/svg11.dtd">
<svg version="1.1" id="Layer_1" xmlns="http://www.w3.org/2000/svg" xmlns:xlink="http://www.w3.org/1999/xlink" x="0px" y="0px"
	 width="100px" height="100px" viewBox="0 0 100 100" enable-background="new 0 0 100 100" xml:space="preserve">
<path d="M96.549,60.04l-20.14-13.79L88.57,25.088c0.614-1.068,0.513-2.402-0.255-3.365c-0.769-0.963-2.047-1.357-3.225-0.998
	l-23.338,7.148L52.79,5.17C52.338,4.024,51.231,3.271,50,3.271s-2.338,0.753-2.791,1.898l-8.962,22.703l-23.338-7.148
	c-1.179-0.361-2.457,0.035-3.224,0.998s-0.869,2.297-0.255,3.365L23.591,46.25L3.452,60.04c-1.016,0.696-1.504,1.942-1.23,3.144
	c0.274,1.2,1.254,2.111,2.472,2.298l24.128,3.686L27.046,93.51c-0.089,1.229,0.581,2.388,1.69,2.922
	c0.415,0.199,0.859,0.297,1.301,0.297c0.739,0,1.47-0.273,2.037-0.797L50,79.366l17.925,16.565c0.905,0.836,2.228,1.034,3.338,0.5
	c1.109-0.534,1.78-1.693,1.69-2.921l-1.775-24.344l24.129-3.686c1.218-0.187,2.197-1.098,2.472-2.298
	C98.053,61.982,97.564,60.736,96.549,60.04z M67.531,63.654c-1.547,0.236-2.652,1.623-2.539,3.184l1.424,19.53l-14.38-13.29
	c-1.15-1.063-2.923-1.063-4.072,0l-14.381,13.29l1.425-19.529c0.114-1.562-0.992-2.948-2.539-3.185l-19.357-2.957l16.157-11.063
	c1.292-0.884,1.686-2.613,0.906-3.97l-9.757-16.978l18.724,5.734c1.496,0.458,3.093-0.311,3.669-1.767L50,14.441l7.19,18.213
	c0.573,1.455,2.17,2.226,3.669,1.767l18.723-5.734l-9.756,16.978c-0.78,1.357-0.386,3.085,0.905,3.97l16.157,11.063L67.531,63.654z"
	/>
</svg>
