<?xml version="1.0" encoding="utf-8"?>
<!-- Generator: Adobe Illustrator 16.0.0, SVG Export Plug-In . SVG Version: 6.00 Build 0)  -->
<!DOCTYPE svg PUBLIC "-//W3C//DTD SVG 1.1//EN" "http://www.w3.org/Graphics/SVG/1.1/DTD/svg11.dtd">
<svg version="1.1" id="Layer_1" xmlns="http://www.w3.org/2000/svg" xmlns:xlink="http://www.w3.org/1999/xlink" x="0px" y="0px"
	 width="100px" height="100px" viewBox="0 0 100 100" enable-background="new 0 0 100 100" xml:space="preserve">
<path d="M84.296,17.217C76.974,8.346,66.126,3.258,54.535,3.258c-1.534,0-3.09,0.104-4.617,0.308
	C30.947,5.81,16.403,21.908,16.051,41.033L7.068,62.73c-0.716,1.793,0.154,3.9,1.934,4.611c0.335,0.111,0.696,0.244,1.018,0.225
	l7.199,0.672l2.278,17.734c0.217,1.734,1.749,3.092,3.485,3.094c0.138,0,0.276-0.01,0.354-0.023l11.454-1.836v5.996
	c0,1.984,1.554,3.539,3.538,3.539c1.985,0,3.54-1.555,3.54-3.539v-10.23c0-1.984-1.555-3.539-3.54-3.539l-0.588,0.006l-11.744,1.941
	l-2.165-16.916c-0.241-1.686-1.554-2.943-3.188-3.061l-5.296-0.449l7.322-17.771c0.256-0.511,0.256-1.005,0.256-1.44
	c0-15.903,11.917-29.32,27.699-31.206l0.269-0.021c1.199-0.093,2.333-0.181,3.541-0.181c17.431,0,31.611,14.135,31.611,31.509
	c0,9.752-4.621,19.069-12.386,24.944c-0.87,0.746-1.39,1.797-1.39,2.813v23.602c0,1.984,1.554,3.539,3.538,3.539
	s3.538-1.555,3.538-3.539v-21.85c7.856-6.559,12.707-15.77,13.665-25.963C93.974,35.142,90.879,25.136,84.296,17.217z"/>
</svg>
