<?xml version="1.0" encoding="utf-8"?>
<!-- Generator: Adobe Illustrator 16.0.0, SVG Export Plug-In . SVG Version: 6.00 Build 0)  -->
<!DOCTYPE svg PUBLIC "-//W3C//DTD SVG 1.1//EN" "http://www.w3.org/Graphics/SVG/1.1/DTD/svg11.dtd">
<svg version="1.1" id="Layer_1" xmlns="http://www.w3.org/2000/svg" xmlns:xlink="http://www.w3.org/1999/xlink" x="0px" y="0px"
	 width="100px" height="100px" viewBox="0 0 100 100" enable-background="new 0 0 100 100" xml:space="preserve">
<g>
	<path d="M49.998,29.247L49.998,29.247c-5.542,0-10.753,2.159-14.672,6.079c-3.92,3.92-6.078,9.133-6.077,14.675
		c0,5.54,2.158,10.75,6.077,14.67c3.919,3.92,9.127,6.079,14.669,6.078c5.543,0,10.754-2.158,14.674-6.077
		c3.921-3.92,6.079-9.131,6.077-14.67c0.003-5.543-2.154-10.756-6.075-14.676C60.751,31.407,55.541,29.248,49.998,29.247z
		 M59.013,59.015c-2.409,2.408-5.611,3.734-9.022,3.734c-3.401,0-6.6-1.326-9.008-3.734c-2.409-2.409-3.735-5.609-3.734-9.014
		c0-3.406,1.326-6.609,3.734-9.019c2.408-2.409,5.609-3.735,9.013-3.735c3.407,0.001,6.609,1.328,9.018,3.736
		c2.408,2.409,3.733,5.61,3.731,9.019C62.747,53.406,61.421,56.607,59.013,59.015z"/>
	<path d="M98.509,49.655l-0.102-0.305l-0.001-0.938l0.003-3.086c-0.01-6.072-5.567-6.543-8.953-6.831
		c-3.689-0.301-4.189-1.445-4.43-1.995l-0.008-0.02c-0.138-0.359-0.276-0.716-0.421-1.069l-0.204-0.535
		c-0.218-0.563-0.672-1.735,1.767-4.619c2.145-2.544,5.735-6.802,1.45-11.104l-2.919-2.926l-0.464-0.914l-0.67-0.218
		c-1.003-1.005-1.254-1.254-1.494-1.492l-1.132-1.13c-1.639-1.638-3.337-1.982-4.473-1.982c-2.582,0-4.462,1.59-6.687,3.471
		c-1.486,1.26-2.717,1.9-3.66,1.9c-0.258,0-0.517-0.046-0.789-0.141c-0.35-0.157-0.705-0.308-1.064-0.454l-0.625-0.281
		c-0.556-0.246-1.714-0.758-2.023-4.467c-0.278-3.332-0.742-8.91-6.837-8.929l-2.484,0.002l-2.289,0l-2.845,0.001L45.34,1.589
		c-6.074,0.002-6.55,5.54-6.842,8.94c-0.286,3.481-1.321,4.129-1.898,4.397c-0.482,0.183-0.955,0.367-1.426,0.565l-0.288,0.106
		c-0.317,0.123-0.615,0.182-0.909,0.182c-0.941,0-2.178-0.641-3.707-1.929c-2.181-1.847-4.064-3.442-6.647-3.442
		c-1.136,0-2.834,0.344-4.464,1.976l-1,0.995c-0.364,0.361-0.471,0.467-2.266,2.268c-0.041,0.04-0.077,0.075-0.12,0.119
		l-3.302,3.298c-4.295,4.311-0.692,8.574,1.49,11.156c2.216,2.623,1.984,3.807,1.775,4.406c-0.17,0.378-0.339,0.775-0.505,1.187
		l-0.293,0.661c-0.269,0.582-0.927,1.616-4.454,1.915c-3.33,0.277-8.902,0.742-8.892,6.829l0.004,4.521
		c-0.005,0.109-0.007,0.217-0.004,0.327c-0.005,2.472-0.004,2.675-0.003,3.156l0.003,1.431c-0.002,6.1,5.565,6.565,8.938,6.848
		c3.453,0.288,4.122,1.308,4.395,1.886c0.147,0.396,0.304,0.809,0.479,1.231l0.016,0.154l0.234,0.486
		c0.218,0.615,0.439,1.824-1.806,4.475c-2.149,2.546-5.747,6.807-1.452,11.127l6.681,6.683c1.635,1.625,3.327,1.966,4.458,1.966
		c2.581,0,4.466-1.592,6.691-3.47c1.487-1.26,2.72-1.898,3.664-1.898c0.253,0,0.507,0.044,0.774,0.135
		c0.39,0.176,0.764,0.336,1.128,0.483l0.675,0.303c0.582,0.27,1.623,0.927,1.92,4.479c0.281,3.312,0.75,8.855,6.84,8.871
		l4.745,0.001l3.261-0.006l1.433,0.003c6.093,0,6.554-5.582,6.832-8.945c0.292-3.516,1.345-4.143,1.921-4.405
		c0.385-0.146,0.768-0.293,1.146-0.448l0.597-0.232c0.296-0.109,0.575-0.162,0.853-0.162c0.944,0,2.184,0.643,3.739,1.954
		c2.174,1.833,4.052,3.417,6.626,3.417c1.137,0,2.835-0.344,4.47-1.984c0.916-0.918,0.988-0.99,1.316-1.313l5.367-5.365
		c4.285-4.305,0.687-8.566-1.495-11.15c-2.259-2.672-1.984-3.855-1.767-4.447c0.169-0.379,0.331-0.759,0.486-1.143l0.256-0.556
		c0.244-0.551,0.751-1.699,4.451-2.006l0.108-0.009c3.298-0.288,8.819-0.769,8.836-6.838l-0.003-1.336
		c-0.001-0.572-0.002-0.605,0.004-3.121L98.509,49.655z M90.409,53.464v0.033c-0.492,0.056-1.068,0.106-1.604,0.152
		c-5.346,0.444-8.995,2.535-10.862,6.229l-0.235,0.436l-0.184,0.41c-0.186,0.487-0.384,0.96-0.597,1.433l-0.089,0.213
		c-1.558,4.07-0.517,8.299,3.122,12.603c0.328,0.389,0.696,0.824,1.004,1.209l-2.35,2.355c-0.007,0.007-0.014,0.014-0.021,0.021
		l-2.051,2.043c-0.165,0.164-0.267,0.264-0.44,0.438c-0.387-0.311-0.831-0.684-1.24-1.029c-3.027-2.553-5.92-3.794-8.844-3.794
		c-1.08,0-2.157,0.172-3.208,0.513l-0.304,0.025l-0.631,0.309c-0.435,0.191-0.885,0.361-1.402,0.558l-0.185,0.076
		c-4.021,1.768-6.296,5.504-6.762,11.134c-0.042,0.509-0.089,1.081-0.143,1.574l-3.134,0.002l-2.973-0.001l-0.772,0.001
		c-0.054-0.495-0.104-1.074-0.149-1.608c-0.453-5.407-2.592-9.078-6.361-10.92l-0.748-0.364c-0.474-0.176-0.946-0.376-1.409-0.588
		l-0.248-0.104c-1.205-0.455-2.449-0.686-3.698-0.686c-2.932,0-5.821,1.241-8.867,3.821c-0.389,0.328-0.824,0.696-1.209,1.004
		l-4.858-4.863c0.313-0.39,0.688-0.835,1.031-1.241c3.467-4.093,4.565-8.159,3.268-12.093l-0.295-0.829
		c-0.219-0.486-0.403-0.979-0.588-1.478l-0.102-0.249c-2.694-5.984-9.001-6.511-11.121-6.688c-0.505-0.042-1.071-0.089-1.56-0.143
		l0-0.186c-0.001-0.466-0.002-0.668,0.002-2.988l0.005-0.031l-0.004-3.671c0.497-0.054,1.079-0.103,1.612-0.147
		c2.045-0.174,8.184-0.696,10.936-6.404l0.314-0.65c0.193-0.505,0.4-1.007,0.624-1.496l0.111-0.267
		c1.51-4.049,0.46-8.249-3.147-12.518c-0.329-0.389-0.697-0.825-1.005-1.209l2.478-2.472c1.813-1.818,1.917-1.921,2.279-2.281
		l0.106-0.105c0.39,0.313,0.835,0.691,1.245,1.038c3.024,2.549,5.914,3.788,8.833,3.788c1.112,0,2.222-0.183,3.304-0.544
		l0.729-0.257c0.507-0.22,1.015-0.417,1.537-0.613l0.217-0.089c3.992-1.782,6.249-5.513,6.712-11.153
		c0.042-0.495,0.09-1.049,0.144-1.53l0.534,0.001l2.844-0.001l2.291,0l1.203-0.001c0.055,0.5,0.103,1.083,0.146,1.605
		c0.441,5.277,2.491,8.902,6.143,10.807l0.493,0.268l0.449,0.202c0.489,0.185,0.967,0.384,1.434,0.595l0.225,0.094
		c1.215,0.464,2.47,0.699,3.73,0.699c2.932,0,5.822-1.243,8.872-3.831c0.384-0.325,0.815-0.689,1.196-0.995
		c0.1,0.1,0.177,0.176,0.255,0.253c0.096,0.095,0.194,0.192,0.343,0.341l-0.027,0.075l1.846,1.747l2.447,2.446
		c-0.312,0.389-0.686,0.833-1.029,1.239c-3.491,4.128-4.583,8.218-3.272,12.102l0.29,0.822c0.204,0.457,0.38,0.924,0.586,1.464
		l0.743,1.944l0.374,0.094c2.015,2.877,5.398,4.525,10.111,4.91c0.505,0.042,1.072,0.091,1.561,0.145l0.001,3.084l-0.022,0.12
		l0.023,0.836l0.003,0.009C90.406,52.855,90.407,52.914,90.409,53.464z"/>
</g>
</svg>
