<?xml version="1.0" encoding="utf-8"?>
<!-- Generator: Adobe Illustrator 16.0.0, SVG Export Plug-In . SVG Version: 6.00 Build 0)  -->
<!DOCTYPE svg PUBLIC "-//W3C//DTD SVG 1.1//EN" "http://www.w3.org/Graphics/SVG/1.1/DTD/svg11.dtd">
<svg version="1.1" id="Layer_1" xmlns="http://www.w3.org/2000/svg" xmlns:xlink="http://www.w3.org/1999/xlink" x="0px" y="0px"
	 width="100px" height="100px" viewBox="0 0 100 100" enable-background="new 0 0 100 100" xml:space="preserve">
<g>
	<path d="M11.996,17.825c3.213,0,5.827-2.614,5.827-5.826s-2.614-5.826-5.827-5.826c-3.212,0-5.826,2.614-5.826,5.826
		S8.783,17.825,11.996,17.825z M11.996,10.173c1.007,0,1.827,0.819,1.827,1.826s-0.82,1.826-1.827,1.826
		c-1.007,0-1.826-0.819-1.826-1.826S10.989,10.173,11.996,10.173z"/>
	<path d="M30.998,17.825c3.211,0,5.824-2.614,5.824-5.826s-2.613-5.826-5.824-5.826c-3.213,0-5.827,2.614-5.827,5.826
		S27.785,17.825,30.998,17.825z M30.998,10.173c1.006,0,1.824,0.819,1.824,1.826s-0.818,1.826-1.824,1.826
		c-1.007,0-1.827-0.819-1.827-1.826S29.99,10.173,30.998,10.173z"/>
	<path d="M49.996,20.794c4.849,0,8.794-3.945,8.794-8.794c0-4.849-3.945-8.793-8.794-8.793S41.202,7.151,41.202,12
		C41.202,16.849,45.146,20.794,49.996,20.794z M49.996,7.207c2.644,0,4.794,2.15,4.794,4.793c0,2.644-2.15,4.794-4.794,4.794
		s-4.794-2.15-4.794-4.794C45.202,9.357,47.352,7.207,49.996,7.207z"/>
	<path d="M11.996,36.826c3.213,0,5.827-2.614,5.827-5.826s-2.614-5.826-5.827-5.826c-3.212,0-5.826,2.613-5.826,5.826
		S8.783,36.826,11.996,36.826z M11.996,29.174c1.007,0,1.827,0.819,1.827,1.826s-0.82,1.826-1.827,1.826
		c-1.007,0-1.826-0.819-1.826-1.826S10.989,29.174,11.996,29.174z"/>
	<path d="M30.999,39.793c4.848,0,8.792-3.944,8.792-8.792c0-4.85-3.944-8.796-8.792-8.797c-4.851,0-8.798,3.946-8.798,8.797
		C22.201,35.849,26.147,39.793,30.999,39.793z M30.998,26.204c2.643,0,4.792,2.153,4.792,4.797c0,2.643-2.15,4.792-4.792,4.792
		c-2.646,0-4.798-2.15-4.798-4.792C26.201,28.355,28.353,26.204,30.998,26.204z"/>
	<path d="M91.852,23.104c4.599-1.6,7.914-5.967,7.914-11.104c0-6.487-5.278-11.765-11.765-11.765c-5.138,0-9.505,3.315-11.105,7.915
		C75.464,5.227,72.467,3.204,69,3.204c-4.85,0-8.795,3.945-8.795,8.795c0,3.468,2.022,6.464,4.945,7.895
		c-3.393,1.181-6.078,3.867-7.257,7.261c-1.43-2.924-4.428-4.949-7.897-4.949c-4.849,0-8.794,3.945-8.794,8.793
		c0,3.469,2.024,6.466,4.948,7.896c-3.393,1.18-6.078,3.865-7.257,7.257c-1.431-2.924-4.428-4.947-7.897-4.947
		c-4.849,0-8.794,3.945-8.794,8.794c0,3.469,2.024,6.467,4.948,7.897c-3.393,1.18-6.078,3.865-7.257,7.258
		c-1.43-2.925-4.428-4.949-7.897-4.949c-4.85,0-8.795,3.945-8.795,8.794c0,3.47,2.024,6.467,4.95,7.897
		c-4.599,1.599-7.915,5.966-7.915,11.104c0,6.486,5.276,11.763,11.762,11.763c5.137,0,9.504-3.316,11.104-7.915
		c1.431,2.922,4.429,4.945,7.898,4.945c4.848,0,8.792-3.944,8.792-8.792c0-3.469-2.023-6.466-4.946-7.896
		c3.392-1.179,6.077-3.864,7.256-7.256c1.431,2.923,4.427,4.945,7.895,4.945c4.849,0,8.794-3.945,8.794-8.794
		c0-3.468-2.023-6.465-4.948-7.895c3.395-1.179,6.081-3.866,7.26-7.261c1.43,2.925,4.428,4.95,7.897,4.95
		c4.85,0,8.795-3.945,8.795-8.795c0-3.469-2.024-6.466-4.948-7.896c3.393-1.179,6.079-3.866,7.257-7.261
		c1.43,2.926,4.428,4.952,7.898,4.952c4.849,0,8.794-3.945,8.794-8.795C96.795,27.532,94.773,24.536,91.852,23.104z M88,4.235
		c4.281,0,7.765,3.483,7.765,7.765S92.282,19.765,88,19.765c-4.282,0-7.766-3.483-7.766-7.765S83.719,4.235,88,4.235z M69,7.204
		c2.644,0,4.795,2.151,4.795,4.795S71.644,16.794,69,16.794s-4.795-2.151-4.795-4.795S66.355,7.204,69,7.204z M49.996,26.206
		c2.644,0,4.794,2.15,4.794,4.793c0,2.644-2.15,4.794-4.794,4.794s-4.794-2.15-4.794-4.794
		C45.202,28.356,47.352,26.206,49.996,26.206z M30.995,45.206c2.645,0,4.796,2.151,4.796,4.794c0,2.644-2.151,4.795-4.796,4.795
		c-2.644,0-4.794-2.151-4.794-4.795C26.201,47.356,28.351,45.206,30.995,45.206z M11.995,64.207c2.644,0,4.795,2.151,4.795,4.794
		c0,2.644-2.151,4.795-4.795,4.795S7.2,71.645,7.2,69.001C7.2,66.357,9.351,64.207,11.995,64.207z M11.997,95.765
		c-4.28,0-7.762-3.482-7.762-7.763s3.482-7.763,7.762-7.763c4.28,0,7.763,3.482,7.763,7.763S16.277,95.765,11.997,95.765z
		 M23.1,84.154c-1.18-3.392-3.865-6.078-7.258-7.256c1.76-0.861,3.189-2.29,4.05-4.05c1.179,3.393,3.865,6.079,7.258,7.258
		C25.39,80.966,23.961,82.394,23.1,84.154z M30.999,92.794c-2.646,0-4.798-2.15-4.798-4.792c0-2.644,2.152-4.795,4.798-4.795
		c2.642,0,4.792,2.151,4.792,4.795C35.791,90.645,33.641,92.794,30.999,92.794z M30.998,76.765c-4.281,0-7.765-3.483-7.765-7.764
		s3.483-7.764,7.765-7.764c4.28,0,7.763,3.483,7.763,7.764S35.278,76.765,30.998,76.765z M42.101,65.153
		c-1.179-3.393-3.865-6.078-7.257-7.257c1.76-0.861,3.188-2.289,4.049-4.049c1.179,3.393,3.865,6.079,7.259,7.258
		C44.391,61.966,42.962,63.393,42.101,65.153z M49.996,73.795c-2.644,0-4.794-2.15-4.794-4.794c0-2.643,2.15-4.793,4.794-4.793
		s4.794,2.15,4.794,4.793C54.79,71.645,52.639,73.795,49.996,73.795z M49.998,57.764c-4.281,0-7.765-3.483-7.765-7.764
		c0-4.281,3.483-7.764,7.765-7.764c4.28,0,7.763,3.483,7.763,7.764C57.76,54.281,54.278,57.764,49.998,57.764z M61.102,46.155
		c-1.179-3.395-3.865-6.081-7.259-7.26c1.761-0.861,3.188-2.29,4.049-4.05c1.179,3.394,3.866,6.08,7.261,7.259
		C63.392,42.965,61.963,44.394,61.102,46.155z M69,54.795c-2.644,0-4.795-2.151-4.795-4.795c0-2.644,2.151-4.794,4.795-4.794
		s4.795,2.151,4.795,4.794C73.794,52.644,71.644,54.795,69,54.795z M69.001,38.762c-4.283,0-7.768-3.481-7.768-7.761
		c0-4.283,3.484-7.768,7.767-7.768c4.278,0.001,7.759,3.486,7.759,7.768C76.76,35.281,73.28,38.762,69.001,38.762z M80.103,27.157
		c-1.178-3.394-3.862-6.081-7.253-7.262c1.758-0.861,3.185-2.287,4.045-4.045c1.18,3.392,3.864,6.076,7.255,7.256
		C82.39,23.967,80.963,25.396,80.103,27.157z M88.001,35.794c-2.644,0-4.795-2.151-4.795-4.795s2.151-4.795,4.795-4.795
		c2.644,0,4.794,2.151,4.794,4.795S90.645,35.794,88.001,35.794z"/>
	<path d="M11.995,58.795c4.85,0,8.795-3.945,8.795-8.795c0-4.849-3.945-8.794-8.795-8.794S3.2,45.151,3.2,50
		C3.2,54.85,7.145,58.795,11.995,58.795z M11.995,45.206c2.644,0,4.795,2.151,4.795,4.794c0,2.644-2.151,4.795-4.795,4.795
		S7.2,52.644,7.2,50C7.2,47.356,9.351,45.206,11.995,45.206z"/>
	<path d="M88.001,41.206c-4.85,0-8.795,3.945-8.795,8.794c0,4.85,3.945,8.795,8.795,8.795c4.849,0,8.794-3.945,8.794-8.795
		C96.795,45.151,92.851,41.206,88.001,41.206z M88.001,54.795c-2.644,0-4.795-2.151-4.795-4.795c0-2.644,2.151-4.794,4.795-4.794
		c2.644,0,4.794,2.151,4.794,4.794C92.795,52.644,90.645,54.795,88.001,54.795z"/>
	<path d="M69,60.207c-4.85,0-8.795,3.945-8.795,8.794c0,4.85,3.945,8.795,8.795,8.795s8.795-3.945,8.795-8.795
		C77.794,64.152,73.849,60.207,69,60.207z M69,73.796c-2.644,0-4.795-2.151-4.795-4.795c0-2.644,2.151-4.794,4.795-4.794
		s4.795,2.151,4.795,4.794C73.794,71.645,71.644,73.796,69,73.796z"/>
	<path d="M88,63.175c-3.212,0-5.826,2.613-5.826,5.826s2.614,5.826,5.826,5.826c3.212,0,5.825-2.613,5.825-5.826
		S91.212,63.175,88,63.175z M88,70.827c-1.007,0-1.826-0.819-1.826-1.826s0.819-1.826,1.826-1.826c1.006,0,1.825,0.819,1.825,1.826
		S89.007,70.827,88,70.827z"/>
	<path d="M49.996,79.208c-4.849,0-8.794,3.945-8.794,8.794c0,4.849,3.945,8.793,8.794,8.793s8.794-3.945,8.794-8.793
		C58.79,83.153,54.845,79.208,49.996,79.208z M49.996,92.795c-2.644,0-4.794-2.15-4.794-4.793c0-2.644,2.15-4.794,4.794-4.794
		s4.794,2.15,4.794,4.794C54.79,90.645,52.639,92.795,49.996,92.795z"/>
	<path d="M68.998,82.174c-3.213,0-5.827,2.614-5.827,5.828c0,3.213,2.614,5.827,5.827,5.827c3.212,0,5.826-2.614,5.826-5.827
		C74.824,84.789,72.21,82.174,68.998,82.174z M68.998,89.829c-1.007,0-1.827-0.82-1.827-1.827c0-1.008,0.82-1.828,1.827-1.828
		c1.007,0,1.826,0.82,1.826,1.828C70.824,89.009,70.004,89.829,68.998,89.829z"/>
	<path d="M88,82.176c-3.212,0-5.826,2.614-5.826,5.826s2.614,5.826,5.826,5.826c3.212,0,5.825-2.613,5.825-5.826
		S91.212,82.176,88,82.176z M88,89.828c-1.007,0-1.826-0.819-1.826-1.826s0.819-1.826,1.826-1.826c1.006,0,1.825,0.819,1.825,1.826
		S89.007,89.828,88,89.828z"/>
</g>
</svg>
