<?xml version="1.0" encoding="utf-8"?>
<!-- Generator: Adobe Illustrator 16.0.0, SVG Export Plug-In . SVG Version: 6.00 Build 0)  -->
<!DOCTYPE svg PUBLIC "-//W3C//DTD SVG 1.1//EN" "http://www.w3.org/Graphics/SVG/1.1/DTD/svg11.dtd">
<svg version="1.1" id="Layer_1" xmlns="http://www.w3.org/2000/svg" xmlns:xlink="http://www.w3.org/1999/xlink" x="0px" y="0px"
	 width="100px" height="100px" viewBox="0 0 100 100" enable-background="new 0 0 100 100" xml:space="preserve">
<g>
	<path d="M38.52,46.476c0.442,0,1.057,0.262,1.856,0.798c1.236,0.828,2.304,1.542,3.65,1.542c0.786,0,1.929-0.256,2.922-1.49
		l3.252-4.067c2.255-2.828-0.188-5.149-1.524-6.419c-1.266-1.197-1.225-1.755-1.158-2.039c0.066-0.208,0.128-0.416,0.187-0.625
		l0.111-0.342c0.083-0.263,0.255-0.811,2.145-1.183c1.768-0.352,5.06-1.006,4.669-4.605l-0.578-5.175
		c-0.177-1.588-1.118-3.482-4.596-3.482c-0.299,0-0.628,0.008-1.02,0.019l-0.262,0.004c-1.542,0-1.871-0.412-2.011-0.646
		l-0.055-0.106c-0.089-0.171-0.178-0.341-0.269-0.51l-0.158-0.305c-0.131-0.266-0.303-0.813,0.709-2.32
		c1-1.497,2.86-4.281,0.039-6.552l-1.11-0.886l-1.148-0.919c-0.838-0.671-0.977-0.781-1.151-0.919l-0.656-0.521
		c-0.745-0.597-1.553-0.899-2.402-0.899c-1.719,0-2.819,1.155-4.024,2.421c-0.735,0.78-1.342,1.176-1.803,1.176
		c-0.077,0-0.157-0.009-0.243-0.029c-0.204-0.063-0.41-0.124-0.616-0.182l-0.338-0.11c-0.264-0.083-0.814-0.256-1.176-2.106
		c-0.346-1.771-0.926-4.737-4.094-4.737c-0.161,0-0.332,0.009-0.515,0.029l-5.176,0.577c-3.596,0.402-3.511,3.761-3.464,5.613
		c0.047,1.747-0.381,2.113-0.631,2.268L17.854,9.76c-0.25,0.129-0.5,0.259-0.746,0.396l-0.113,0.056
		c-0.172,0.09-0.325,0.13-0.493,0.13c-0.303,0-0.864-0.135-1.848-0.797C13.418,8.716,12.352,8,11.003,8
		c-0.789,0-1.935,0.258-2.92,1.489l-3.25,4.063c-2.269,2.832,0.174,5.149,1.518,6.424c1.226,1.161,1.219,1.74,1.162,2.019
		c-0.077,0.237-0.147,0.474-0.209,0.694l-0.092,0.293c-0.083,0.263-0.256,0.811-2.132,1.183C3.304,24.513,0,25.162,0.397,28.771
		l0.573,5.175c0.179,1.588,1.124,3.481,4.611,3.481c0.291,0,0.609-0.008,1.006-0.018l0.257-0.003c1.501,0,1.853,0.391,2.001,0.626
		c0.104,0.205,0.211,0.41,0.322,0.613l0.148,0.285c0.128,0.246,0.394,0.757-0.67,2.342c-1.005,1.501-2.876,4.294-0.048,6.574
		l4.063,3.245c0.745,0.595,1.553,0.897,2.402,0.897c1.731,0,2.838-1.17,4.02-2.42c0.739-0.782,1.348-1.179,1.81-1.179
		c0.072,0,0.147,0.009,0.227,0.026c0.2,0.063,0.401,0.124,0.604,0.182l0.365,0.118c0.263,0.083,0.811,0.255,1.182,2.154
		c0.351,1.753,0.938,4.688,4.092,4.688c0.158,0,0.325-0.008,0.52-0.029l5.171-0.577c3.609-0.407,3.513-3.796,3.461-5.617
		c-0.05-1.75,0.381-2.114,0.631-2.267c0.197-0.101,0.392-0.202,0.585-0.307l0.354-0.185C38.234,46.507,38.37,46.476,38.52,46.476z
		 M36.036,42.015L35.55,42.25c-0.242,0.143-0.493,0.27-0.746,0.399l-0.115,0.063c-2.195,1.272-3.263,3.547-3.171,6.763
		c0.006,0.197,0.012,0.411,0.015,0.614l-3.243,0.36c-0.042-0.196-0.083-0.404-0.123-0.603c-0.581-2.976-1.984-4.912-4.211-5.772
		l-0.561-0.205c-0.28-0.073-0.558-0.155-0.832-0.243l-0.144-0.042c-0.505-0.13-1.019-0.196-1.525-0.196
		c-1.919,0-3.701,0.898-5.452,2.753c-0.133,0.141-0.278,0.294-0.418,0.438l-2.547-2.039c0.111-0.169,0.231-0.349,0.344-0.517
		c1.7-2.53,2.068-4.905,1.074-7.108l-0.224-0.472c-0.145-0.245-0.276-0.5-0.404-0.754l-0.078-0.142
		c-1.23-2.086-3.364-3.144-6.343-3.144c-0.131,0-0.263,0.001-0.435,0.006c-0.203,0.005-0.395,0.01-0.576,0.013l-0.361-3.24
		c0.198-0.041,0.409-0.083,0.609-0.122c2.992-0.593,4.932-2.01,5.776-4.231l0.188-0.53c0.074-0.281,0.153-0.561,0.245-0.834
		l0.055-0.189c0.604-2.421-0.257-4.754-2.585-6.959c-0.135-0.127-0.281-0.267-0.419-0.4l2.037-2.546
		c0.168,0.11,0.346,0.229,0.513,0.342c2.592,1.743,4.969,2.065,7.128,1.073l0.434-0.211c0.229-0.133,0.463-0.253,0.697-0.374
		l0.211-0.113c2.176-1.276,3.236-3.545,3.148-6.785c-0.004-0.185-0.01-0.385-0.013-0.577l3.24-0.362
		c0.041,0.199,0.082,0.409,0.121,0.605c0.585,2.985,1.996,4.923,4.245,5.783l0.521,0.191c0.285,0.076,0.571,0.159,0.853,0.247
		l0.117,0.034c0.511,0.133,1.03,0.2,1.542,0.2c1.92,0,3.7-0.898,5.465-2.771c0.128-0.135,0.268-0.281,0.402-0.419
		c0.075,0.06,2.546,2.037,2.546,2.037c-0.109,0.168-0.229,0.346-0.342,0.517c-1.722,2.565-2.078,4.971-1.061,7.155l0.2,0.412
		c0.044,0.077,0.088,0.155,0.13,0.234l0.799,1.333c1.269,1.653,3.249,2.489,5.9,2.489c0.133,0,0.267-0.002,0.43-0.007
		c0.208-0.005,0.403-0.011,0.588-0.014l0.36,3.241c-0.197,0.042-0.408,0.083-0.607,0.123c-2.969,0.584-4.901,1.984-5.772,4.23
		l-0.201,0.545c-0.072,0.275-0.15,0.546-0.237,0.815l-0.04,0.135c-0.637,2.439,0.219,4.792,2.562,7.008
		c0.138,0.131,0.288,0.274,0.429,0.411l-0.739,0.928l-0.249,0.158l-0.19,0.389l-0.86,1.072c-0.169-0.111-0.348-0.23-0.516-0.343
		C40.549,41.369,38.186,41.043,36.036,42.015z"/>
	<path d="M39.179,27.112c-0.664-5.953-5.673-10.442-11.653-10.442c-0.436,0-0.877,0.024-1.311,0.073
		c-6.43,0.712-11.083,6.527-10.371,12.961c0.66,5.953,5.671,10.442,11.656,10.442c0.433,0,0.873-0.024,1.306-0.072
		C35.237,39.358,39.89,33.545,39.179,27.112z M28.255,35.104c-3.737,0.42-7.034-2.287-7.44-5.951
		c-0.409-3.694,2.261-7.033,5.953-7.442c0.255-0.028,0.508-0.042,0.758-0.042c3.429,0,6.302,2.578,6.683,5.994
		C34.617,31.355,31.946,34.694,28.255,35.104z"/>
	<path d="M68.688,54.327c-1.641,0-3.255,0.298-4.8,0.887c-3.361,1.283-6.021,3.798-7.492,7.083
		c-1.471,3.286-1.573,6.946-0.29,10.307c1.977,5.187,7.036,8.672,12.588,8.672c1.64,0,3.253-0.298,4.795-0.887
		c3.363-1.282,6.025-3.797,7.496-7.081c1.472-3.286,1.575-6.946,0.292-10.306C79.301,57.813,74.242,54.327,68.688,54.327z
		 M76.423,71.263c-0.925,2.065-2.6,3.647-4.715,4.454c-0.971,0.371-1.985,0.559-3.013,0.559c-3.491,0-6.673-2.191-7.917-5.454
		c-0.807-2.114-0.743-4.416,0.182-6.482c0.925-2.065,2.598-3.647,4.71-4.453c0.973-0.371,1.989-0.559,3.018-0.559
		c3.492,0,6.673,2.192,7.917,5.457C77.413,66.897,77.348,69.198,76.423,71.263z"/>
	<path d="M95.308,71.592c-2.072-1.143-2.178-1.979-2.183-2.417c0.016-0.281,0.026-0.561,0.032-0.842l0.026-0.375
		c0.022-0.417,0.067-1.286,2.392-2.401c1.913-0.928,5.115-2.481,3.748-6.093l-0.326-0.849c-0.125-0.325-0.149-0.389-0.733-1.929
		l-0.137-0.529l-0.111-0.112l-0.9-2.364c-0.645-1.684-2.015-2.65-3.76-2.65c-0.969,0-1.923,0.275-3.167,0.633
		c-0.728,0.211-1.354,0.319-1.858,0.319c-0.799,0-1.163-0.258-1.438-0.537l-0.007-0.008c-0.173-0.193-0.345-0.383-0.521-0.57
		l-0.243-0.272c-0.28-0.311-0.864-0.958-0.024-3.349c0.707-2.022,1.891-5.407-1.638-6.994l-1.373-0.617l-1.969-0.882
		c-0.894-0.401-1.127-0.504-1.331-0.594l-0.975-0.435c-0.604-0.271-1.208-0.408-1.792-0.408c-2.399,0-3.476,1.952-4.536,3.872
		c-1.136,2.066-1.973,2.172-2.412,2.178c-0.255-0.014-0.515-0.024-0.788-0.029l-0.43-0.026c-0.42-0.022-1.295-0.067-2.38-2.325
		c-0.927-1.933-1.978-4.123-4.527-4.123c-0.511,0-1.044,0.104-1.593,0.311l-5.771,2.201c-3.612,1.38-2.631,4.813-2.028,6.924
		c0.661,2.276,0.139,2.941-0.168,3.254c-0.252,0.225-0.498,0.447-0.725,0.664l-0.17,0.149c-0.727,0.656-1.65,0.625-3.353,0.031
		c-1.285-0.452-2.3-0.808-3.359-0.808c-1.639,0-2.929,0.87-3.63,2.441L40.77,52.87c-0.142,0.312-0.18,0.396-0.849,1.899
		l-1.306,2.911c-1.581,3.541,1.56,5.275,3.463,6.326c2.034,1.125,2.167,1.949,2.179,2.387c-0.018,0.289-0.029,0.579-0.034,0.869
		L44.2,67.699c-0.026,0.438-0.165,1.278-2.344,2.33c-1.937,0.929-5.179,2.484-3.79,6.107l2.202,5.772
		c0.646,1.691,2.018,2.662,3.767,2.662c0.968,0,1.919-0.274,3.158-0.632c0.742-0.214,1.351-0.318,1.862-0.318
		c0.749,0,1.129,0.237,1.392,0.484c0.195,0.222,0.391,0.441,0.593,0.655l0.267,0.293c0.292,0.332,0.785,1.03-0.017,3.309
		c-0.707,2.02-1.889,5.401,1.646,6.995l5.648,2.529c0.6,0.267,1.199,0.401,1.779,0.401c2.397,0,3.478-1.952,4.541-3.874
		c1.129-2.05,1.961-2.169,2.401-2.178c0.272,0.017,0.546,0.028,0.819,0.033l0.471,0.028c0.439,0.028,1.281,0.172,2.332,2.358
		c0.923,1.916,1.969,4.087,4.511,4.087c0.512,0,1.046-0.104,1.597-0.313l5.772-2.204c3.628-1.382,2.626-4.842,2.023-6.924
		c-0.695-2.401-0.077-3.011,0.165-3.25c0.225-0.2,0.447-0.4,0.664-0.605l0.238-0.214c0.724-0.65,1.635-0.627,3.375-0.019
		c1.276,0.445,2.285,0.797,3.338,0.797c1.64,0,2.931-0.87,3.634-2.447l2.53-5.648C100.347,74.378,97.207,72.642,95.308,71.592z
		 M91.98,80.849c-0.334-0.104-0.736-0.245-1.104-0.373c-3.357-1.176-5.897-0.912-8.03,0.792l-0.148,0.073l-0.305,0.305
		c-0.233,0.233-0.481,0.453-0.763,0.705l-0.089,0.083c-3.038,2.994-1.891,6.955-1.509,8.271c0.104,0.36,0.222,0.767,0.308,1.107
		l-4.409,1.684c-0.162-0.311-0.348-0.696-0.517-1.048c-1.515-3.152-3.64-4.875-6.32-5.127l-0.367-0.053l-0.293,0.002
		c-0.3,0-0.603-0.012-0.902-0.031l-0.084-0.006l-0.084,0c-2.803,0.009-5.104,1.613-6.854,4.792c-0.18,0.325-0.383,0.692-0.562,0.991
		l-4.304-1.929c0.105-0.336,0.247-0.74,0.375-1.105c1.154-3.28,0.879-5.99-0.814-8.062l-0.356-0.417
		c-0.249-0.247-0.477-0.507-0.707-0.77l-0.118-0.125c-1.326-1.32-2.998-1.989-4.969-1.989c-0.988,0-2.051,0.168-3.282,0.524
		c-0.354,0.103-0.756,0.218-1.093,0.303L43,75.039c0.313-0.163,0.699-0.349,1.051-0.518c1.188-0.573,4.739-2.286,5.122-6.302
		l0.046-0.534c0-0.355,0.01-0.71,0.033-1.062l0.006-0.094l0-0.094c-0.034-4.192-3.592-6.159-4.79-6.821
		c-0.325-0.179-0.692-0.382-0.991-0.561l0.981-2.188c0.688-1.542,0.725-1.624,0.864-1.931l0.083-0.185
		c0.336,0.106,0.741,0.248,1.11,0.378c3.405,1.189,5.995,0.869,8.059-0.821l0.39-0.33c0.261-0.255,0.528-0.496,0.803-0.74
		l0.102-0.096c1.995-1.989,2.495-4.759,1.474-8.275c-0.1-0.35-0.213-0.745-0.296-1.077l4.404-1.68
		c0.164,0.314,0.351,0.702,0.516,1.046c0.563,1.171,2.23,4.642,6.199,5.111l0.7,0.068c0.332,0,0.662,0.01,0.987,0.03l0.15,0.004
		c2.813,0,5.121-1.604,6.875-4.795c0.178-0.323,0.38-0.688,0.557-0.985l0.332,0.148c0.085,0.038,0.176,0.078,0.32,0.142l1.562,0.7
		l2.093,0.938c-0.105,0.336-0.247,0.74-0.374,1.104c-0.437,1.245-1.744,4.969,0.807,8.058l0.362,0.427
		c0.224,0.225,0.434,0.46,0.705,0.762l0.745,0.831h0.198c1.169,0.855,2.558,1.288,4.145,1.288c0.991,0,2.056-0.169,3.277-0.524
		c0.357-0.103,0.761-0.219,1.099-0.304l1.019,2.669l0.004,0.004c0.456,1.202,0.486,1.281,0.602,1.582l0.059,0.153
		c-0.309,0.162-0.691,0.348-1.044,0.519c-1.184,0.568-4.716,2.262-5.127,6.273l-0.056,0.583c0,0.342-0.011,0.679-0.032,1.019
		l-0.004,0.149c-0.002,4.232,3.588,6.213,4.787,6.874c0.327,0.181,0.696,0.385,0.997,0.564L91.98,80.849z"/>
</g>
</svg>
