<?xml version="1.0" encoding="utf-8"?>
<!-- Generator: Adobe Illustrator 16.0.0, SVG Export Plug-In . SVG Version: 6.00 Build 0)  -->
<!DOCTYPE svg PUBLIC "-//W3C//DTD SVG 1.1//EN" "http://www.w3.org/Graphics/SVG/1.1/DTD/svg11.dtd">
<svg version="1.1" id="Layer_1" xmlns="http://www.w3.org/2000/svg" xmlns:xlink="http://www.w3.org/1999/xlink" x="0px" y="0px"
	 width="100px" height="100px" viewBox="0 0 100 100" enable-background="new 0 0 100 100" xml:space="preserve">
<g>
	<path d="M22.165,34.585c-4.745,0-8.604,3.859-8.604,8.604s3.86,8.604,8.604,8.604c4.743,0,8.602-3.859,8.602-8.604
		S26.908,34.585,22.165,34.585z M22.165,47.792c-2.539,0-4.604-2.065-4.604-4.604s2.065-4.604,4.604-4.604
		c2.537,0,4.602,2.065,4.602,4.604S24.702,47.792,22.165,47.792z"/>
	<path d="M49.998,33.729c-4.979,0-9.03,4.052-9.03,9.032s4.051,9.032,9.03,9.032c4.98,0,9.032-4.052,9.032-9.032
		S54.979,33.729,49.998,33.729z M49.998,47.792c-2.774,0-5.03-2.257-5.03-5.032s2.256-5.032,5.03-5.032
		c2.775,0,5.032,2.257,5.032,5.032S52.773,47.792,49.998,47.792z"/>
	<path d="M77.833,34.585c-4.743,0-8.602,3.859-8.602,8.604s3.859,8.604,8.602,8.604c4.745,0,8.604-3.859,8.604-8.604
		S82.578,34.585,77.833,34.585z M77.833,47.792c-2.537,0-4.602-2.065-4.602-4.604s2.064-4.604,4.602-4.604
		c2.539,0,4.604,2.065,4.604,4.604S80.372,47.792,77.833,47.792z"/>
	<path d="M84.961,15.64H15.039c-8.008,0-14.522,6.368-14.522,14.195v40.329c0,7.827,6.515,14.195,14.522,14.195h69.922
		c8.008,0,14.522-6.368,14.522-14.195V29.835C99.483,22.008,92.969,15.64,84.961,15.64z M38.942,78.272v-0.222
		c0-10.681,3.938-20.678,5.728-20.678h10.658c1.836,0,5.725,9.777,5.728,20.665v0.234H38.942z M87.086,78.272H68.582v-0.222
		c0-9.861,2.934-19.778,4.738-20.678h9.026c1.803,0.9,4.737,10.811,4.739,20.665V78.272z M31.419,78.272H12.912v-0.222
		c0-9.863,2.936-19.78,4.741-20.678h9.025c1.802,0.898,4.737,10.809,4.741,20.665V78.272z M95.483,70.164
		c0,3.407-1.74,6.421-4.397,8.273v-0.4c-0.001-6.585-2.056-24.665-8.659-24.665H73.24c-5.38,0-7.739,11.996-8.43,20.009
		c-0.83-8.61-3.813-20.009-9.482-20.009H44.67c-5.668,0-8.65,11.386-9.481,19.998c-0.693-8.008-3.055-19.998-8.431-19.998h-9.185
		c-6.608,0-8.661,18.089-8.661,24.678v0.385c-2.656-1.853-4.396-4.866-4.396-8.272V29.835c0-5.622,4.72-10.195,10.522-10.195h69.922
		c5.802,0,10.522,4.574,10.522,10.195V70.164z"/>
</g>
</svg>
