<?xml version="1.0" encoding="utf-8"?>
<!-- Generator: Adobe Illustrator 16.0.0, SVG Export Plug-In . SVG Version: 6.00 Build 0)  -->
<!DOCTYPE svg PUBLIC "-//W3C//DTD SVG 1.1//EN" "http://www.w3.org/Graphics/SVG/1.1/DTD/svg11.dtd">
<svg version="1.1" id="Layer_1" xmlns="http://www.w3.org/2000/svg" xmlns:xlink="http://www.w3.org/1999/xlink" x="0px" y="0px"
	 width="100px" height="100px" viewBox="0 0 100 100" enable-background="new 0 0 100 100" xml:space="preserve">
<g>
	<path d="M98.892,55.922L79.568,22.643l0.295-0.295c0.998-0.006,1.931-0.393,2.63-1.091c0.711-0.711,1.103-1.657,1.103-2.663
		c0-1.005-0.392-1.951-1.103-2.662c-1.423-1.423-3.901-1.422-5.324,0c-0.693,0.691-1.084,1.64-1.093,2.631L14.04,80.601
		c-0.506,0.505-0.784,1.177-0.784,1.893c0,0.715,0.278,1.387,0.784,1.892c0.505,0.506,1.177,0.785,1.893,0.785
		s1.388-0.279,1.893-0.785l42.513-42.515l35.026,17.78c1.03,0.525,2.364,0.29,3.156-0.546
		C99.331,58.249,99.483,56.939,98.892,55.922z M89.714,50.78L64.323,37.89l11.33-11.331L89.714,50.78z"/>
	<path d="M45.028,47.242c0.195,0.195,0.512,0.195,0.707,0l3.079-3.078c0.094-0.094,0.146-0.221,0.146-0.354s-0.053-0.26-0.146-0.354
		L23.92,18.562c-0.006-0.989-0.397-1.937-1.091-2.63c-0.707-0.707-1.646-1.095-2.644-1.095c-0.821,0-1.634,0.274-2.258,0.751
		c-0.154,0.1-0.296,0.217-0.423,0.344c-1.467,1.467-1.467,3.856,0,5.325c0.698,0.698,1.632,1.085,2.631,1.091l0.296,0.295
		L1.108,55.922c-0.599,1.033-0.45,2.312,0.371,3.185c0.505,0.531,1.213,0.836,1.944,0.836c0.433,0,0.841-0.099,1.212-0.291
		L39.66,41.873L45.028,47.242z"/>
	<path d="M54.969,49.613c-0.188-0.188-0.52-0.187-0.707,0l-3.077,3.078c-0.195,0.195-0.195,0.512,0,0.707l30.989,30.988
		c0.505,0.506,1.177,0.785,1.893,0.785s1.388-0.279,1.893-0.785c1.043-1.044,1.043-2.742,0-3.785L54.969,49.613z"/>
</g>
</svg>
