<?xml version="1.0" encoding="utf-8"?>
<!-- Generator: Adobe Illustrator 16.0.0, SVG Export Plug-In . SVG Version: 6.00 Build 0)  -->
<!DOCTYPE svg PUBLIC "-//W3C//DTD SVG 1.1//EN" "http://www.w3.org/Graphics/SVG/1.1/DTD/svg11.dtd">
<svg version="1.1" id="Layer_1" xmlns="http://www.w3.org/2000/svg" xmlns:xlink="http://www.w3.org/1999/xlink" x="0px" y="0px"
	 width="100px" height="100px" viewBox="0 0 100 100" enable-background="new 0 0 100 100" xml:space="preserve">
<g id="journey">
	<path fill="#010101" d="M25.107,48.478c-5.574-0.036-10.122,4.456-10.158,10.031c-0.034,5.576,4.458,10.124,10.031,10.16
		c5.577,0.035,10.126-4.457,10.16-10.032c0-0.025,0-0.049,0-0.074C35.141,53.014,30.658,48.507,25.107,48.478z M25.107,62.278
		c-2.057,0.036-3.752-1.604-3.788-3.662c-0.036-2.058,1.605-3.754,3.661-3.789c2.059-0.036,3.755,1.604,3.791,3.662
		c0,0.024,0.001,0.048,0,0.073c0.011,2.038-1.624,3.703-3.664,3.726V62.278z"/>
	<path fill="#010101" d="M85.928,66.636H70.279c-2.932,0-5.309-2.376-5.309-5.308V50.155c0-2.931,2.377-5.308,5.309-5.308h9.872
		c0.105,0,0.201,0,0.298,0h0.318c0.188-0.04,0.373-0.096,0.552-0.169l0,0c0.542-0.222,1.012-0.589,1.358-1.062l10.85-14.48
		c2.526-3.31,3.787-7.414,3.556-11.571C96.615,8.237,88.674,1.054,79.346,1.522C70.674,1.957,63.74,8.891,63.305,17.565
		c-0.232,4.157,1.03,8.261,3.557,11.571l6.984,9.342h-3.566c-6.451,0-11.678,5.228-11.678,11.677v11.173
		c0,6.45,5.227,11.677,11.678,11.677h15.648c3.517,0,6.367,3.244,6.367,9.542c0,7.049-2.851,9.541-6.367,9.541H31.457L43.824,75.58
		c3.558-4.658,5.333-10.433,5.012-16.285c-0.85-12.739-11.276-22.717-23.729-22.717c-12.451,0-22.875,9.979-23.735,22.717
		c-0.32,5.854,1.46,11.629,5.021,16.285l16.157,21.635l0.106,0.117c0.097,0.121,0.202,0.234,0.317,0.339l0.191,0.159
		c0.117,0.09,0.243,0.172,0.371,0.244l0.213,0.117c0.148,0.068,0.299,0.125,0.456,0.17l0.191,0.053
		c0.229,0.054,0.464,0.083,0.701,0.084h60.829c7.034,0,12.737-4.013,12.737-15.91c0-12.551-5.703-15.91-12.737-15.91V66.636z
		 M71.914,25.314c-1.618-2.093-2.434-4.694-2.304-7.335c0.339-5.011,4.363-10.202,10.53-10.202c6.169,0,10.202,5.191,10.531,10.202
		c0.131,2.641-0.688,5.243-2.304,7.335l-8.217,11.029L71.914,25.314z M11.488,71.769C8.842,68.328,7.509,64.056,7.73,59.72
		c0.553-8.249,7.241-16.773,17.377-16.773c10.139,0,16.827,8.493,17.379,16.773c0.223,4.336-1.11,8.608-3.758,12.049L25.107,89.985
		L11.488,71.769z"/>
	<path fill="#010101" d="M80.13,10.452c-4.292,0.012-7.762,3.5-7.749,7.792c0.012,4.288,3.493,7.755,7.78,7.75
		c4.292-0.018,7.761-3.501,7.761-7.792C87.91,13.91,84.422,10.44,80.13,10.452z M80.151,20.867c-1.46,0-2.645-1.184-2.645-2.644
		c0-1.46,1.185-2.644,2.645-2.644s2.645,1.184,2.645,2.644C82.796,19.683,81.611,20.867,80.151,20.867z"/>
</g>
</svg>
