<?xml version="1.0" encoding="utf-8"?>
<!-- Generator: Adobe Illustrator 16.0.0, SVG Export Plug-In . SVG Version: 6.00 Build 0)  -->
<!DOCTYPE svg PUBLIC "-//W3C//DTD SVG 1.1//EN" "http://www.w3.org/Graphics/SVG/1.1/DTD/svg11.dtd">
<svg version="1.1" id="Layer_1" xmlns="http://www.w3.org/2000/svg" xmlns:xlink="http://www.w3.org/1999/xlink" x="0px" y="0px"
	 width="100px" height="100px" viewBox="0 0 100 100" enable-background="new 0 0 100 100" xml:space="preserve">
<path fill="#010101" d="M97.53,89.888L72.979,32.806c-0.629-1.571-2.151-2.585-3.879-2.585c-0.204,0-0.405,0.014-0.605,0.042
	c-0.2-0.028-0.401-0.042-0.605-0.042c-1.728,0-3.25,1.015-3.85,2.514l-9.775,22.729c-4.615-2.585-8.84-5.451-12.568-8.577
	c7.536-7.866,12.322-16.584,14.263-25.984h9.987c2.402,0,4.214-1.812,4.214-4.214c0-2.402-1.812-4.213-4.214-4.213h-25.76v-4.16
	c0-2.402-1.812-4.214-4.214-4.214c-2.402,0-4.213,1.812-4.213,4.214v4.16H6.242c-2.402,0-4.214,1.811-4.214,4.213
	c0,2.402,1.812,4.214,4.214,4.214H47.24c-1.789,7.092-5.767,13.862-11.868,20.194c-4.374-4.578-7.726-9.534-9.961-14.718
	c-0.627-1.573-2.15-2.589-3.88-2.589c-0.55,0-1.087,0.103-1.6,0.308c-2.123,0.851-3.144,3.309-2.26,5.517
	c2.55,6.121,6.435,11.879,11.569,17.157c-8.833,7.333-17.717,11.452-20.405,12.608c-0.045,0.02-0.085,0.037-0.121,0.053
	c-1.019,0.424-1.853,1.252-2.293,2.28c-0.442,1.031-0.46,2.159-0.052,3.177c0.031,0.077,0.065,0.153,0.103,0.227
	c0.748,1.493,2.159,2.385,3.775,2.385c0.727,0,1.366-0.156,1.909-0.466c3.257-1.385,13.437-6.074,23.207-14.324
	c6.192,5.258,12.063,8.765,15.517,10.625L39.377,90.082c-0.421,1.051-0.408,2.247,0.035,3.282c0.371,0.867,1.008,1.564,1.819,2
	c0.567,0.354,1.244,0.534,2.022,0.534c1.801,0,3.364-1.091,3.911-2.69l6.93-16.242h28.68l6.989,16.38
	c0.024,0.056,0.05,0.112,0.077,0.167c0.748,1.493,2.159,2.385,3.775,2.385c0.719,0,1.351-0.153,1.89-0.456
	c1.035-0.474,1.83-1.315,2.218-2.363C98.112,92.028,98.04,90.879,97.53,89.888z M57.761,68.539l10.734-24.962l10.734,24.962H57.761z
	 M10.262,61.501l-0.002,0.531c-0.004,0.002-0.008,0.003-0.012,0.005v-0.536C10.252,61.5,10.256,61.5,10.262,61.501z"/>
</svg>
