<?xml version="1.0" encoding="utf-8"?>
<!-- Generator: Adobe Illustrator 16.0.0, SVG Export Plug-In . SVG Version: 6.00 Build 0)  -->
<!DOCTYPE svg PUBLIC "-//W3C//DTD SVG 1.1//EN" "http://www.w3.org/Graphics/SVG/1.1/DTD/svg11.dtd">
<svg version="1.1" id="Layer_1" xmlns="http://www.w3.org/2000/svg" xmlns:xlink="http://www.w3.org/1999/xlink" x="0px" y="0px"
	 width="100px" height="100px" viewBox="0 0 100 100" enable-background="new 0 0 100 100" xml:space="preserve">
<path d="M94.174,60.836L69.059,50l25.115-10.836c0.917-0.396,1.622-1.165,1.936-2.113c0.314-0.948,0.208-1.986-0.292-2.851
	L86.59,18.219c-0.5-0.865-1.345-1.476-2.323-1.678c-0.977-0.201-1.996,0.024-2.797,0.62L59.53,33.494l3.177-27.167
	c0.116-0.993-0.198-1.987-0.862-2.733C61.181,2.847,60.229,2.42,59.23,2.42H40.773c-0.999,0-1.95,0.427-2.615,1.173
	c-0.664,0.746-0.978,1.741-0.862,2.733l3.175,27.167l-21.94-16.333c-0.802-0.597-1.822-0.823-2.797-0.62
	c-0.979,0.202-1.824,0.813-2.323,1.678L4.182,34.201c-0.5,0.865-0.606,1.902-0.292,2.851C4.204,38,4.909,38.769,5.826,39.165
	L30.941,50L5.827,60.834c-0.917,0.396-1.622,1.165-1.936,2.113c-0.314,0.948-0.208,1.985,0.291,2.851l9.229,15.983
	c0.5,0.865,1.345,1.476,2.324,1.678c0.977,0.202,1.997-0.024,2.797-0.62l21.939-16.333l-3.175,27.167
	c-0.116,0.992,0.198,1.987,0.862,2.733c0.664,0.746,1.616,1.173,2.615,1.173l18.457-0.002c0.999,0,1.95-0.427,2.614-1.173
	c0.664-0.747,0.978-1.741,0.861-2.733L59.53,66.509L81.469,82.84c0.801,0.596,1.818,0.821,2.798,0.62
	c0.978-0.202,1.823-0.813,2.323-1.678L95.818,65.8c0.5-0.865,0.606-1.902,0.292-2.851C95.796,62.001,95.091,61.232,94.174,60.836z
	 M82.495,74.876L57.201,56.049c-1.12-0.834-2.629-0.921-3.84-0.223c-1.21,0.698-1.889,2.05-1.726,3.438l3.662,31.314l-10.591,0.001
	l3.66-31.319c0.162-1.388-0.517-2.739-1.727-3.438c-0.543-0.313-1.147-0.469-1.75-0.469c-0.738,0-1.473,0.233-2.09,0.692
	l-25.293,18.83l-5.295-9.172l28.952-12.49c1.283-0.554,2.114-1.817,2.114-3.214s-0.831-2.66-2.114-3.214L12.21,34.295l5.295-9.171
	l25.294,18.83c1.121,0.834,2.63,0.922,3.84,0.224s1.889-2.05,1.727-3.438l-3.66-31.32h10.591L51.634,40.74
	c-0.162,1.388,0.517,2.739,1.727,3.438c1.209,0.698,2.719,0.609,3.84-0.224l25.294-18.83l5.295,9.17L58.837,46.786
	c-1.283,0.554-2.113,1.817-2.113,3.214s0.831,2.66,2.113,3.214L87.79,65.706L82.495,74.876z"/>
</svg>
