<?xml version="1.0" encoding="utf-8"?>
<!-- Generator: Adobe Illustrator 16.0.0, SVG Export Plug-In . SVG Version: 6.00 Build 0)  -->
<!DOCTYPE svg PUBLIC "-//W3C//DTD SVG 1.1//EN" "http://www.w3.org/Graphics/SVG/1.1/DTD/svg11.dtd">
<svg version="1.1" id="Layer_1" xmlns="http://www.w3.org/2000/svg" xmlns:xlink="http://www.w3.org/1999/xlink" x="0px" y="0px"
	 width="100px" height="100px" viewBox="0 0 100 100" enable-background="new 0 0 100 100" xml:space="preserve">
<path d="M97.291,8.865c-0.254-0.077-6.323-1.885-14.1-1.885c-7.316,0-13.644,1.577-18.805,4.685
	C58.457,15.233,53.395,19.716,50,24.334c-3.394-4.619-8.456-9.101-14.386-12.67C30.453,8.556,24.126,6.979,16.81,6.979
	c-7.779,0-13.847,1.809-14.101,1.885L0.618,9.498l0.347,2.157c0.153,0.953,3.91,23.444,17.888,31.86
	c8.394,5.05,17.592,7.68,24.502,6.995V93.02h13.291V50.509c0.733,0.073,1.495,0.109,2.281,0.109c6.619,0,14.718-2.59,22.219-7.104
	c13.98-8.416,17.738-30.906,17.891-31.859l0.347-2.157L97.291,8.865z M78.566,39.229c-6.746,4.06-13.904,6.389-19.64,6.389
	c-1.535,0-2.912-0.171-4.093-0.509l-3.188-0.913V88.02h-3.291V44.197l-3.188,0.912c-1.181,0.337-2.558,0.509-4.092,0.509
	c-5.737,0-12.897-2.328-19.644-6.388C11.797,33.43,7.637,18.747,6.359,13.11c2.271-0.489,6.088-1.131,10.451-1.131
	c6.394,0,11.853,1.335,16.226,3.968c6.654,4.004,12.037,9.183,14.767,14.208L50,34.196l2.197-4.04
	c2.732-5.025,8.115-10.204,14.769-14.208c4.372-2.633,9.832-3.969,16.226-3.969c4.362,0,8.179,0.643,10.45,1.131
	C92.363,18.747,88.202,33.429,78.566,39.229z"/>
</svg>
