<?xml version="1.0" encoding="utf-8"?>
<!-- Generator: Adobe Illustrator 16.0.0, SVG Export Plug-In . SVG Version: 6.00 Build 0)  -->
<!DOCTYPE svg PUBLIC "-//W3C//DTD SVG 1.1//EN" "http://www.w3.org/Graphics/SVG/1.1/DTD/svg11.dtd">
<svg version="1.1" id="Layer_1" xmlns="http://www.w3.org/2000/svg" xmlns:xlink="http://www.w3.org/1999/xlink" x="0px" y="0px"
	 width="100px" height="100px" viewBox="0 0 100 100" enable-background="new 0 0 100 100" xml:space="preserve">
<g>
	<path d="M91.57,8.826c-1.555-3.778-5.226-6.298-9.418-6.298c-3.405,0-6.568,1.725-8.449,4.505c-1.357-0.215-2.673-0.095-3.94,0.292
		C69.026,7.063,68.268,6.93,67.5,6.93c-1.955,0-3.771,0.818-5.053,2.194c-1.137-0.655-2.43-1.011-3.753-1.011
		c-2.725,0-5.17,1.446-6.509,3.73c-2.577,0.127-4.634,2.265-4.634,4.874c0,1.403,0.587,2.683,1.58,3.581
		c-0.037,0.272-0.055,0.547-0.055,0.824c0,1.192,0.342,2.303,0.925,3.251h-2.788v20.242L25.514,56.111L24.815,43.77L0.693,59.852
		v37.621h68.355V43.858l-4.74,2.816v-21.61c1.482,0.172,3.015-0.052,4.368-0.727c1.534,0.699,3.187,0.985,4.915,0.729
		c1.963,2.594,5.026,4.154,8.307,4.154c2.989,0,5.808-1.276,7.78-3.471c0.375,0.055,0.744,0.083,1.111,0.083
		c4.697,0,8.519-3.821,8.519-8.518C99.307,12.877,95.902,9.221,91.57,8.826z M65.048,50.888v42.585H4.693v-31.48l16.524-11.016
		l0.657,11.591l22.464-11.902l0.226,12.378l6.648-3.944V28.373h9.097v25.331L65.048,50.888z M60.595,24.373
		c0.107-0.173,0.216-0.345,0.307-0.528c0.299,0.2,0.614,0.374,0.939,0.528H60.595z M90.789,21.831c-0.398,0-0.825-0.072-1.305-0.222
		l-1.412-0.438l-0.833,1.222c-1.208,1.77-3.204,2.827-5.34,2.827c-2.335,0-4.497-1.293-5.641-3.376l-0.786-1.431l-1.559,0.483
		c-0.568,0.176-1.045,0.258-1.5,0.258c-0.948,0-1.889-0.278-2.721-0.805l-1.145-0.725l-1.098,0.794
		c-0.665,0.481-1.438,0.736-2.235,0.736c-1.161,0-2.252-0.538-2.993-1.474l-0.904-1.144l-1.365,0.511
		c-0.214,0.08-0.458,0.142-0.722,0.183l-1.658,0.257l-0.036,1.677c-0.026,1.208-1.025,2.192-2.227,2.192
		c-1.232,0-2.235-1.002-2.235-2.234c0-0.308,0.066-0.611,0.198-0.904l0.879-1.959l-2.016-0.738
		c-0.283-0.104-0.585-0.369-0.585-0.804c0-0.485,0.394-0.88,0.877-0.88c0.017,0,0.084,0.005,0.274,0.075l1.966,0.719l0.628-1.997
		c0.475-1.508,1.84-2.521,3.398-2.521c1.014,0,1.958,0.428,2.658,1.207l0.966,1.072l2.188-0.944l0.319-0.751
		c0.626-1.471,2.381-2.243,3.978-1.44l0.816,0.411l0.844-0.348c1.101-0.453,2.195-0.56,3.595-0.087l1.707,0.575l0.75-1.637
		c1.014-2.212,3.227-3.642,5.639-3.642c2.886,0,5.366,1.969,6.03,4.789l0.406,1.724l2.014-0.227
		c0.063-0.009,0.125-0.021,0.188-0.023c2.491,0,4.518,2.029,4.518,4.523C95.307,19.805,93.28,21.831,90.789,21.831z"/>
	<path d="M7.919,90.32h17.774V79.545H7.919V90.32z M11.919,83.545h9.774v2.775h-9.774V83.545z"/>
	<path d="M26.926,90.319h17.777V79.546H26.926V90.319z M30.926,83.546h9.777v2.773h-9.777V83.546z"/>
	<path d="M45.935,90.319h17.776V79.546H45.935V90.319z M49.935,83.546h9.776v2.773h-9.776V83.546z"/>
	<path d="M7.919,77.901h17.774V67.128H7.919V77.901z M11.919,71.128h9.774v2.773h-9.774V71.128z"/>
	<path d="M26.926,77.902h17.777V67.128H26.926V77.902z M30.926,71.128h9.777v2.774h-9.777V71.128z"/>
	<path d="M45.935,77.902h17.776V67.128H45.935V77.902z M49.935,71.128h9.776v2.774h-9.776V71.128z"/>
</g>
</svg>
