<?xml version="1.0" encoding="utf-8"?>
<!-- Generator: Adobe Illustrator 16.0.0, SVG Export Plug-In . SVG Version: 6.00 Build 0)  -->
<!DOCTYPE svg PUBLIC "-//W3C//DTD SVG 1.1//EN" "http://www.w3.org/Graphics/SVG/1.1/DTD/svg11.dtd">
<svg version="1.1" id="Layer_1" xmlns="http://www.w3.org/2000/svg" xmlns:xlink="http://www.w3.org/1999/xlink" x="0px" y="0px"
	 width="100px" height="100px" viewBox="0 0 100 100" enable-background="new 0 0 100 100" xml:space="preserve">
<g>
	<path d="M17.906,72.038c-0.295-0.302-0.69-0.455-1.129-0.45c-0.422,0.016-0.819,0.209-1.091,0.533
		C12.449,75.971,2.22,88.87,6.526,93.27c0.504,0.515,1.423,1.129,2.939,1.129c0,0,0,0,0,0c5.754,0,16.636-9.405,17.858-10.477
		c0.31-0.272,0.494-0.659,0.51-1.07c0.016-0.412-0.139-0.812-0.427-1.106L17.906,72.038z"/>
	<path d="M81.222,26.565c0.282,0.288,0.668,0.451,1.072,0.451s0.79-0.163,1.072-0.451l8.444-8.623c0.571-0.583,0.571-1.516,0-2.099
		l-9.586-9.792c-0.282-0.288-0.668-0.451-1.072-0.451s-0.79,0.163-1.072,0.451l-8.444,8.623c-0.571,0.583-0.571,1.516,0,2.099
		L81.222,26.565z"/>
	<path d="M54.549,35.8h19.145c0.404,0,0.791-0.163,1.073-0.452l5.908-6.053c0.57-0.583,0.569-1.515-0.001-2.098l-9.592-9.792
		c-0.282-0.288-0.668-0.45-1.072-0.45c0,0-0.001,0-0.001,0c-0.404,0-0.79,0.164-1.072,0.453L53.475,33.253
		c-0.421,0.432-0.543,1.074-0.309,1.63S53.945,35.8,54.549,35.8z"/>
	<path d="M44.28,63.199H25.131c-0.404,0-0.791,0.163-1.073,0.452l-5.908,6.053c-0.569,0.583-0.569,1.515,0.001,2.097l9.592,9.798
		c0.282,0.288,0.668,0.451,1.072,0.451c0,0,0.001,0,0.001,0c0.404,0,0.79-0.164,1.072-0.453l15.466-15.851
		c0.421-0.432,0.543-1.074,0.309-1.63S44.884,63.199,44.28,63.199z"/>
	<path d="M1.576,36.262v26.566h96.848V36.262H1.576z M94.648,59.06h-5.122V43.497l-3.775-0.006V59.06h-6.608v-7.585h-1.888v7.585
		h-6.614V43.491h-3.77V59.06h-6.614v-7.585h-1.888v7.585h-6.614l0.006-15.569h-3.774V59.06h-6.608v-7.585H39.49v7.585h-6.615V43.491
		h-3.769V59.06h-6.608v-7.585H20.61v7.585h-6.614V43.491h-3.775V59.06h-4.87V40.031h89.298V59.06z"/>
</g>
</svg>
