<?xml version="1.0" encoding="utf-8"?>
<!-- Generator: Adobe Illustrator 16.0.0, SVG Export Plug-In . SVG Version: 6.00 Build 0)  -->
<!DOCTYPE svg PUBLIC "-//W3C//DTD SVG 1.1//EN" "http://www.w3.org/Graphics/SVG/1.1/DTD/svg11.dtd">
<svg version="1.1" id="Layer_1" xmlns="http://www.w3.org/2000/svg" xmlns:xlink="http://www.w3.org/1999/xlink" x="0px" y="0px"
	 width="100px" height="100px" viewBox="0 0 100 100" enable-background="new 0 0 100 100" xml:space="preserve">
<g>
	<path d="M90.221,14.762C84.422,9.006,76.471,5.57,68.953,5.57c-4.616,0-8.925,1.305-12.455,3.77
		c-22.766,15.752-43.244,40.262-46.458,45.16c-0.668,1.096-0.349,2.392-0.087,2.924l0.097,0.173
		c13.792,22.148,31.617,34.237,37.288,37.01c0.44,0.226,0.956,0.345,1.491,0.345c0.652,0,1.292-0.172,1.82-0.497
		c3.306-2.083,28.88-21.44,44.888-45.667C102.072,38.956,99.789,24.331,90.221,14.762z M92.203,46.577
		C78.055,67.988,54.55,87.115,48.827,90.87c-2.529-1.369-20.387-11.618-35.015-34.804c4.119-5.82,23.461-28.56,44.97-43.443
		c2.861-1.998,6.378-3.054,10.171-3.054c6.486,0,13.383,3.002,18.445,8.025C95.641,25.838,97.707,38.296,92.203,46.577z"/>
	<path d="M11.353,50.559C28.127,30.395,46.298,16.028,46.48,15.885l0.178-0.157c0.771-0.771,1.118-1.804,0.974-2.908
		c-0.168-1.294-1.064-2.65-2.112-3.257c-4.661-2.954-10.056-4.515-15.604-4.515c-7.817,0-15.151,3.049-20.64,8.576
		c-9.638,9.569-11.326,24.823-4.033,36.24l0.091,0.16c0.371,0.658,1.237,2.2,3.047,2.2C9.441,52.224,10.412,51.681,11.353,50.559z
		 M12.104,16.453c4.743-4.775,11.068-7.404,17.812-7.404c4.788,0,9.443,1.346,13.498,3.914c0.041,0.03,0.089,0.086,0.132,0.147
		c-2.952,2.382-19.507,16.023-34.973,34.537C2.336,37.785,3.81,24.688,12.104,16.453z"/>
</g>
</svg>
