<?xml version="1.0" encoding="utf-8"?>
<!-- Generator: Adobe Illustrator 16.0.0, SVG Export Plug-In . SVG Version: 6.00 Build 0)  -->
<!DOCTYPE svg PUBLIC "-//W3C//DTD SVG 1.1//EN" "http://www.w3.org/Graphics/SVG/1.1/DTD/svg11.dtd">
<svg version="1.1" id="Layer_1" xmlns="http://www.w3.org/2000/svg" xmlns:xlink="http://www.w3.org/1999/xlink" x="0px" y="0px"
	 width="100px" height="100px" viewBox="0 0 100 100" enable-background="new 0 0 100 100" xml:space="preserve">
<g>
	<path d="M93.072,51.17H80.497c-1.829-13.919-13.074-25.066-26.944-26.727v-5.031c0.269-0.039,0.542-0.057,0.823-0.057
		c1.659,0,3.297,0.653,5.031,1.345c1.754,0.7,3.567,1.423,5.456,1.423c1.696,0,3.193-0.569,4.577-1.739
		c0.337-0.285,0.531-0.704,0.531-1.146V6.621c0-0.584-0.339-1.115-0.869-1.361c-0.531-0.246-1.154-0.161-1.6,0.216
		c-0.83,0.702-1.693,1.029-2.716,1.029c-1.416,0-2.986-0.613-4.648-1.262c-1.896-0.74-3.858-1.506-5.935-1.506
		c-0.367,0-0.728,0.025-1.082,0.074c-0.596-1.149-1.746-1.896-3.117-1.896c-2.027,0-3.556,1.606-3.556,3.736V24.44
		c-13.87,1.652-25.115,12.797-26.944,26.729H6.928c-0.829,0-1.5,0.671-1.5,1.5v43.914c0,0.829,0.671,1.5,1.5,1.5h86.144
		c0.829,0,1.5-0.671,1.5-1.5V52.67C94.572,51.841,93.9,51.17,93.072,51.17z M91.572,95.084H8.428V54.17h12.421
		c0.779,0,1.428-0.596,1.495-1.372c1.166-13.613,12.263-24.579,25.813-25.505c0.487-0.033,0.927-0.302,1.18-0.719
		c0.237-0.391,0.282-0.867,0.126-1.293c-0.017-0.121-0.016-0.386-0.015-0.602V5.651c0-0.123,0.027-0.736,0.556-0.736
		c0.518,0,0.553,0.606,0.555,0.728c0.008,0.489,0.253,0.943,0.658,1.218c0.405,0.274,0.918,0.335,1.375,0.161
		c0.505-0.192,1.032-0.285,1.611-0.285c1.513,0,3.131,0.632,4.844,1.3c1.849,0.722,3.76,1.468,5.74,1.468
		c0.76,0,1.489-0.114,2.184-0.34v9.325c-0.662,0.429-1.344,0.632-2.108,0.632c-1.313,0-2.786-0.587-4.345-1.209
		c-1.831-0.73-3.907-1.558-6.142-1.558c-0.963,0-1.908,0.155-2.807,0.461c-0.607,0.207-1.016,0.778-1.016,1.42v6.441l0.002,0.198
		c0.002,0.116,0.005,0.322-0.005,0.426c-0.148,0.421-0.102,0.889,0.132,1.274c0.252,0.417,0.692,0.686,1.179,0.72
		c13.543,0.945,24.633,11.909,25.796,25.502c0.066,0.776,0.716,1.372,1.495,1.372h12.421V95.084z"/>
	<path d="M72.102,63.471V85.12c0,2.672,2.331,4.93,5.09,4.93c2.76,0,5.092-2.257,5.092-4.93V63.471c0-2.672-2.332-4.93-5.092-4.93
		C74.433,58.541,72.102,60.798,72.102,63.471z M79.284,63.471V85.12c0,1.028-0.978,1.93-2.092,1.93c-1.113,0-2.09-0.902-2.09-1.93
		V63.471c0-1.028,0.977-1.93,2.09-1.93C78.306,61.541,79.284,62.443,79.284,63.471z"/>
	<path d="M22.806,58.541c-2.759,0-5.091,2.257-5.091,4.93V85.12c0,2.672,2.332,4.93,5.091,4.93c2.76,0,5.092-2.257,5.092-4.93
		V63.471C27.898,60.798,25.566,58.541,22.806,58.541z M24.898,85.12c0,1.028-0.978,1.93-2.092,1.93c-1.114,0-2.091-0.902-2.091-1.93
		V63.471c0-1.028,0.977-1.93,2.091-1.93c1.114,0,2.092,0.902,2.092,1.93V85.12z"/>
	<path d="M41.278,58.541c-2.76,0-5.092,2.257-5.092,4.93V85.12c0,2.672,2.332,4.93,5.092,4.93s5.092-2.257,5.092-4.93V63.471
		C46.37,60.798,44.038,58.541,41.278,58.541z M43.37,85.12c0,1.028-0.978,1.93-2.092,1.93s-2.092-0.902-2.092-1.93V63.471
		c0-1.028,0.978-1.93,2.092-1.93s2.092,0.902,2.092,1.93V85.12z"/>
	<path d="M58.722,58.541c-2.76,0-5.092,2.257-5.092,4.93V85.12c0,2.672,2.332,4.93,5.092,4.93s5.092-2.257,5.092-4.93V63.471
		C63.814,60.798,61.482,58.541,58.722,58.541z M60.814,85.12c0,1.028-0.978,1.93-2.092,1.93s-2.092-0.902-2.092-1.93V63.471
		c0-1.028,0.978-1.93,2.092-1.93s2.092,0.902,2.092,1.93V85.12z"/>
</g>
</svg>
