<?xml version="1.0" encoding="utf-8"?>
<!-- Generator: Adobe Illustrator 16.0.0, SVG Export Plug-In . SVG Version: 6.00 Build 0)  -->
<!DOCTYPE svg PUBLIC "-//W3C//DTD SVG 1.1//EN" "http://www.w3.org/Graphics/SVG/1.1/DTD/svg11.dtd">
<svg version="1.1" id="Layer_1" xmlns="http://www.w3.org/2000/svg" xmlns:xlink="http://www.w3.org/1999/xlink" x="0px" y="0px"
	 width="100px" height="100px" viewBox="0 0 100 100" enable-background="new 0 0 100 100" xml:space="preserve">
<g>
	<path d="M8.063,44.166l27.563-16.683l26.838,6.166c0.725,0,1.451-0.364,1.813-0.728l21.397-18.858l-1.09,4.716
		c-1.087,2.539,3.266,3.988,4.354,1.087c0.363-1.813,3.627-11.605,3.627-12.692c0-1.451-1.088-2.175-2.538-2.175L77.695,5.723
		c-2.9,0.363-2.538,4.715,0.363,4.715l5.803-0.362L62.101,28.934l-26.111-6.166c-0.727,0-1.089,0-1.814,0.363L5.523,40.538
		c-1.088,0.363-1.451,1.815-0.724,2.901C5.523,44.529,6.975,44.893,8.063,44.166z"/>
	<path d="M78.372,27.807V95h20.045V27.807H78.372z M95.417,92H81.372V30.807h14.045V92z"/>
	<path d="M52.655,95h20.408V45.578H52.655V95z M55.655,48.578h14.408V92H55.655V48.578z"/>
	<path d="M27.301,95h20.045V40.501H27.301V95z M30.301,43.501h14.045V92H30.301V43.501z"/>
	<path d="M1.583,95h20.409V54.282H1.583V95z M4.583,57.282h14.409V92H4.583V57.282z"/>
</g>
</svg>
