<?xml version="1.0" encoding="utf-8"?>
<!-- Generator: Adobe Illustrator 16.0.0, SVG Export Plug-In . SVG Version: 6.00 Build 0)  -->
<!DOCTYPE svg PUBLIC "-//W3C//DTD SVG 1.1//EN" "http://www.w3.org/Graphics/SVG/1.1/DTD/svg11.dtd">
<svg version="1.1" id="Layer_1" xmlns="http://www.w3.org/2000/svg" xmlns:xlink="http://www.w3.org/1999/xlink" x="0px" y="0px"
	 width="100px" height="100px" viewBox="0 0 100 100" enable-background="new 0 0 100 100" xml:space="preserve">
<path d="M82.018,6.225C78.326,5.272,74.747,4.81,71.076,4.81c-5.3,0-9.879,0.963-14.308,1.895l-0.14,0.029
	c-4.163,0.887-8.094,1.725-12.417,1.725c-1.615,0-3.203-0.117-4.806-0.354c-0.708-4.132-4.316-7.286-8.646-7.286
	c-4.838,0-8.773,3.936-8.773,8.772V83.56h-7.697v15.621h32.939V83.56h-7.696V48.783c1.563,0.169,3.119,0.253,4.696,0.253
	c5.377,0,9.985-0.982,14.48-1.94c4.152-0.876,8.074-1.704,12.353-1.704c2.829,0,5.608,0.362,8.501,1.107l6.15,1.575V7.162
	L82.018,6.225z M79.712,40.364c-2.911-0.653-5.754-0.972-8.651-0.972c-4.905,0-9.321,0.932-13.644,1.844
	c-4.152,0.885-8.445,1.8-13.19,1.8c-2.388,0-4.723-0.222-7.139-0.679l-3.558-0.673V89.56h7.696v3.621H20.288V89.56h7.697V9.592
	c0-1.529,1.244-2.772,2.773-2.772c1.529,0,2.772,1.244,2.772,2.772v3.461l2.368,0.51c2.8,0.603,5.519,0.896,8.312,0.896
	c4.955,0,9.384-0.944,13.66-1.855l0.132-0.028c4.128-0.868,8.396-1.766,13.073-1.766c2.889,0,5.72,0.335,8.636,1.025V40.364z"/>
</svg>
