<?xml version="1.0" encoding="utf-8"?>
<!-- Generator: Adobe Illustrator 16.0.0, SVG Export Plug-In . SVG Version: 6.00 Build 0)  -->
<!DOCTYPE svg PUBLIC "-//W3C//DTD SVG 1.1//EN" "http://www.w3.org/Graphics/SVG/1.1/DTD/svg11.dtd">
<svg version="1.1" id="Layer_1" xmlns="http://www.w3.org/2000/svg" xmlns:xlink="http://www.w3.org/1999/xlink" x="0px" y="0px"
	 width="100px" height="100px" viewBox="0 0 100 100" enable-background="new 0 0 100 100" xml:space="preserve">
<g>
	<path d="M50,3.185C24.187,3.185,3.185,24.187,3.185,50S24.187,96.814,50,96.814c25.813,0,46.814-21.001,46.814-46.814
		S75.814,3.185,50,3.185z M50,90.458C27.691,90.458,9.542,72.309,9.542,50S27.691,9.541,50,9.541
		c22.309,0,40.458,18.15,40.458,40.459S72.309,90.458,50,90.458z"/>
	<path d="M76.39,22.027H24.367c-1.657,0-3,1.344-3,3v17.497c0,1.657,1.343,3,3,3h9.205c1.657,0,3-1.343,3-3v-5.292h5.293v33h-5.998
		c-1.657,0-3,1.344-3,3v8.021c0,1.657,1.343,3,3,3H64.89c1.657,0,3-1.343,3-3v-8.021c0-1.656-1.343-3-3-3h-6v-33h5.295v5.292
		c0,1.657,1.343,3,3,3h9.205c1.657,0,3-1.343,3-3V25.027C79.39,23.371,78.047,22.027,76.39,22.027z M73.39,39.524h-3.205v-5.292
		c0-1.656-1.343-3-3-3H55.89c-1.657,0-3,1.344-3,3v39c0,1.657,1.343,3,3,3h6v2.021H38.867v-2.021h5.998c1.657,0,3-1.343,3-3v-39
		c0-1.656-1.343-3-3-3H33.572c-1.657,0-3,1.344-3,3v5.292h-3.205V28.027H73.39V39.524z"/>
</g>
</svg>
