<?xml version="1.0" encoding="utf-8"?>
<!-- Generator: Adobe Illustrator 16.0.0, SVG Export Plug-In . SVG Version: 6.00 Build 0)  -->
<!DOCTYPE svg PUBLIC "-//W3C//DTD SVG 1.1//EN" "http://www.w3.org/Graphics/SVG/1.1/DTD/svg11.dtd">
<svg version="1.1" id="Layer_1" xmlns="http://www.w3.org/2000/svg" xmlns:xlink="http://www.w3.org/1999/xlink" x="0px" y="0px"
	 width="100px" height="100px" viewBox="0 0 100 100" enable-background="new 0 0 100 100" xml:space="preserve">
<g>
	<path d="M50,3.185C24.187,3.185,3.185,24.186,3.185,50c0,25.813,21.001,46.814,46.815,46.814c25.813,0,46.814-21.001,46.814-46.814
		C96.815,24.186,75.814,3.185,50,3.185z M50,90.458C27.691,90.458,9.542,72.309,9.542,50C9.542,27.691,27.691,9.541,50,9.541
		c22.309,0,40.458,18.15,40.458,40.459C90.458,72.309,72.309,90.458,50,90.458z"/>
	<path d="M58.391,41.787H41.609c-1.753,0-3.179,1.425-3.179,3.178v10.07c0,1.751,1.426,3.177,3.179,3.177h16.782
		c1.753,0,3.18-1.425,3.18-3.177v-10.07C61.571,43.212,60.145,41.787,58.391,41.787z M55.212,48.144v3.712H44.788v-3.712H55.212z"/>
	<path d="M75.174,51.855h-3.533v-3.712h3.533c4.529,0,8.214-3.685,8.214-8.214c0-4.529-3.685-8.213-8.214-8.213h-3.533v-5.214
		c0-4.529-3.685-8.213-8.215-8.213c-4.529,0-8.214,3.684-8.214,8.213v5.214H44.788v-5.214c0-4.529-3.685-8.213-8.214-8.213
		s-8.214,3.684-8.214,8.213v5.214h-3.534c-4.529,0-8.214,3.684-8.214,8.213c0,4.529,3.685,8.214,8.214,8.214h3.534v3.712h-3.534
		c-4.529,0-8.214,3.685-8.214,8.214c0,4.529,3.685,8.213,8.214,8.213h3.534v5.214c0,4.529,3.685,8.213,8.214,8.213
		s8.214-3.684,8.214-8.213v-5.214h10.425v5.214c0,4.529,3.685,8.213,8.214,8.213c4.53,0,8.215-3.684,8.215-8.213v-5.214h3.533
		c4.529,0,8.214-3.684,8.214-8.213C83.388,55.54,79.704,51.855,75.174,51.855z M65.283,65.104v8.392
		c0,1.023-0.833,1.856-1.856,1.856c-1.023,0-1.855-0.833-1.855-1.856v-8.392c0-1.753-1.426-3.179-3.18-3.179H41.609
		c-1.753,0-3.179,1.426-3.179,3.179v8.392c0,1.023-0.833,1.856-1.856,1.856s-1.856-0.833-1.856-1.856v-8.392
		c0-1.753-1.426-3.179-3.179-3.179h-6.713c-1.024,0-1.857-0.833-1.857-1.856c0-1.024,0.833-1.857,1.857-1.857h6.713
		c1.753,0,3.179-1.425,3.179-3.177v-10.07c0-1.752-1.426-3.178-3.179-3.178h-6.713c-1.024,0-1.857-0.833-1.857-1.857
		c0-1.023,0.833-1.856,1.857-1.856h6.713c1.753,0,3.179-1.426,3.179-3.179v-8.392c0-1.023,0.833-1.856,1.856-1.856
		s1.856,0.833,1.856,1.856v8.392c0,1.753,1.426,3.179,3.179,3.179h16.782c1.753,0,3.18-1.426,3.18-3.179v-8.392
		c0-1.023,0.833-1.856,1.855-1.856c1.023,0,1.856,0.833,1.856,1.856v8.392c0,1.753,1.426,3.179,3.179,3.179h6.713
		c1.024,0,1.857,0.833,1.857,1.856c0,1.024-0.833,1.857-1.857,1.857h-6.713c-1.753,0-3.179,1.425-3.179,3.178v10.07
		c0,1.751,1.426,3.177,3.179,3.177h6.713c1.024,0,1.857,0.833,1.857,1.857c0,1.023-0.833,1.856-1.857,1.856h-6.713
		C66.708,61.926,65.283,63.352,65.283,65.104z"/>
</g>
</svg>
