<?xml version="1.0" encoding="utf-8"?>
<!-- Generator: Adobe Illustrator 16.0.0, SVG Export Plug-In . SVG Version: 6.00 Build 0)  -->
<!DOCTYPE svg PUBLIC "-//W3C//DTD SVG 1.1//EN" "http://www.w3.org/Graphics/SVG/1.1/DTD/svg11.dtd">
<svg version="1.1" id="Layer_1" xmlns="http://www.w3.org/2000/svg" xmlns:xlink="http://www.w3.org/1999/xlink" x="0px" y="0px"
	 width="100px" height="100px" viewBox="0 0 100 100" enable-background="new 0 0 100 100" xml:space="preserve">
<g>
	<path d="M50,3.185C24.187,3.185,3.185,24.186,3.185,50c0,25.813,21.001,46.814,46.815,46.814c25.813,0,46.814-21.001,46.814-46.814
		C96.815,24.186,75.814,3.185,50,3.185z M50,90.458C27.691,90.458,9.542,72.309,9.542,50C9.542,27.691,27.691,9.541,50,9.541
		c22.309,0,40.458,18.15,40.458,40.459C90.458,72.309,72.309,90.458,50,90.458z"/>
	<path d="M66.698,61.502h-9.12c-0.779,0-1.412,0.633-1.412,1.412v5.473c0,0.778,0.633,1.411,1.412,1.411h9.12
		c0.779,0,1.412-0.633,1.412-1.411v-5.473C68.11,62.135,67.477,61.502,66.698,61.502z M65.286,64.326v2.647H58.99v-2.647H65.286z"/>
	<path d="M75.818,66.974h-2.235v-2.647h2.235c2.288,0,4.148-1.861,4.148-4.148s-1.861-4.148-4.148-4.148h-2.235v-3.148
		c0-2.287-1.861-4.147-4.148-4.147s-4.148,1.86-4.148,4.147v3.148H58.99v-3.148c0-2.287-1.861-4.147-4.148-4.147
		s-4.148,1.86-4.148,4.147v3.148h-2.235c-2.288,0-4.148,1.861-4.148,4.148s1.861,4.148,4.148,4.148h2.235v2.647h-2.235
		c-2.288,0-4.148,1.861-4.148,4.148s1.861,4.148,4.148,4.148h2.235v3.148c0,2.287,1.861,4.147,4.148,4.147s4.148-1.86,4.148-4.147
		v-3.148h6.296v3.148c0,2.287,1.861,4.147,4.148,4.147s4.148-1.86,4.148-4.147v-3.148h2.235c2.288,0,4.148-1.861,4.148-4.148
		S78.105,66.974,75.818,66.974z M75.818,72.446H72.17c-0.779,0-1.412,0.633-1.412,1.412v4.561c0,0.729-0.594,1.323-1.324,1.323
		s-1.324-0.594-1.324-1.323v-4.561c0-0.779-0.633-1.412-1.412-1.412h-9.12c-0.779,0-1.412,0.633-1.412,1.412v4.561
		c0,0.729-0.594,1.323-1.324,1.323c-0.729,0-1.323-0.594-1.323-1.323v-4.561c0-0.779-0.634-1.412-1.413-1.412h-3.647
		c-0.73,0-1.324-0.594-1.324-1.324s0.594-1.324,1.324-1.324h3.647c0.779,0,1.413-0.633,1.413-1.411v-5.473
		c0-0.779-0.634-1.412-1.413-1.412h-3.647c-0.73,0-1.324-0.594-1.324-1.324s0.594-1.324,1.324-1.324h3.647
		c0.779,0,1.413-0.633,1.413-1.412v-4.561c0-0.729,0.594-1.323,1.323-1.323c0.73,0,1.324,0.594,1.324,1.323v4.561
		c0,0.779,0.633,1.412,1.412,1.412h9.12c0.779,0,1.412-0.633,1.412-1.412v-4.561c0-0.729,0.594-1.323,1.324-1.323
		s1.324,0.594,1.324,1.323v4.561c0,0.779,0.633,1.412,1.412,1.412h3.647c0.731,0,1.325,0.594,1.325,1.324s-0.594,1.324-1.325,1.324
		H72.17c-0.779,0-1.412,0.633-1.412,1.412v5.473c0,0.778,0.633,1.411,1.412,1.411h3.647c0.731,0,1.325,0.594,1.325,1.324
		S76.549,72.446,75.818,72.446z"/>
	<path d="M30.587,47.286v7.38h18.845v-7.38h-4.913V28.997h3.166v4.526h8.024V20.972H24.31v12.552h8.024v-4.526H35.5v18.289H30.587z
		 M29.334,25.997v4.526H27.31v-6.552h25.399v6.552h-2.024v-4.526h-9.166v24.289h4.913v1.38H33.587v-1.38H38.5V25.997H29.334z"/>
</g>
</svg>
