<?xml version="1.0" encoding="utf-8"?>
<!-- Generator: Adobe Illustrator 16.0.0, SVG Export Plug-In . SVG Version: 6.00 Build 0)  -->
<!DOCTYPE svg PUBLIC "-//W3C//DTD SVG 1.1//EN" "http://www.w3.org/Graphics/SVG/1.1/DTD/svg11.dtd">
<svg version="1.1" id="Layer_1" xmlns="http://www.w3.org/2000/svg" xmlns:xlink="http://www.w3.org/1999/xlink" x="0px" y="0px"
	 width="100px" height="100px" viewBox="0 0 100 100" enable-background="new 0 0 100 100" xml:space="preserve">
<g>
	<path d="M48.715,25.981c-12.517,0.643-22.681,11.447-22.787,23.965c0,9.095,4.921,17.226,13.052,21.397
		c1.819,0.963,2.995,2.995,2.995,5.136c0,0.106,0,0.106,0,0.213h-2.674v10.699c0,5.884,4.813,10.698,10.698,10.698
		s10.698-4.814,10.698-10.698V76.8h-2.674v-0.214c0-2.247,1.177-4.173,2.995-5.135c8.023-4.172,13.052-12.305,13.052-21.397
		C74.071,36.359,62.518,25.34,48.715,25.981z M54.974,87.392c0,2.735-2.238,4.975-4.975,4.975s-4.975-2.239-4.975-4.975v-4.976
		l8.706,0.05h1.243V87.392z M58.559,66.637c-3.639,1.926-5.885,5.67-5.885,9.949V76.8h-5.35c0-0.107,0-0.107,0-0.214
		c0-4.173-2.246-8.023-5.884-9.949c-6.312-3.21-10.164-9.63-10.164-16.69c0-9.735,7.918-18.081,17.653-18.615
		c0.319,0,0.642,0,1.069,0c10.377,0,18.723,8.452,18.723,18.723C68.722,57.114,64.871,63.427,58.559,66.637z"/>
	<path d="M20.579,50.054c0-1.498-1.178-2.675-2.675-2.675H4.531c-1.498,0-2.675,1.177-2.675,2.675s1.177,2.675,2.675,2.675h13.373
		C19.401,52.729,20.579,51.552,20.579,50.054z"/>
	<path d="M95.468,47.379H82.095c-1.497,0-2.675,1.177-2.675,2.675s1.178,2.675,2.675,2.675h13.373c1.498,0,2.676-1.177,2.676-2.675
		S96.966,47.379,95.468,47.379z"/>
	<path d="M64.764,24.591c0.428,0.215,0.855,0.32,1.283,0.32c0.963,0,1.818-0.428,2.354-1.391l6.739-11.554
		c0.75-1.284,0.322-2.889-0.962-3.639c-1.283-0.748-2.888-0.319-3.638,0.964L63.8,20.846C62.945,22.238,63.48,23.843,64.764,24.591z
		"/>
	<path d="M31.598,23.628c0.535,0.855,1.391,1.391,2.354,1.391c0.428,0,0.963-0.107,1.284-0.32c1.283-0.75,1.711-2.354,0.963-3.638
		l-6.74-11.555c-0.75-1.283-2.354-1.711-3.638-0.963c-1.284,0.749-1.712,2.354-0.962,3.638L31.598,23.628z"/>
	<path d="M20.899,63.854l-11.554,6.74c-1.284,0.749-1.712,2.354-0.964,3.638c0.535,0.856,1.392,1.391,2.354,1.391
		c0.428,0,0.963-0.106,1.283-0.321l11.555-6.739c1.285-0.855,1.712-2.568,0.963-3.745C23.788,63.534,22.183,63.105,20.899,63.854z"
		/>
	<path d="M77.816,36.787c0.428,0,0.963-0.106,1.284-0.321l11.555-6.739c1.283-0.749,1.711-2.354,0.963-3.638
		c-0.749-1.283-2.354-1.712-3.638-0.963l-11.555,6.739c-1.285,0.535-1.712,2.248-0.963,3.531
		C75.998,36.252,76.853,36.787,77.816,36.787z"/>
	<path d="M9.239,29.619l11.553,6.74c0.43,0.214,0.856,0.321,1.285,0.321c0.963,0,1.818-0.429,2.354-1.392
		c0.748-1.283,0.32-2.889-0.963-3.638l-11.555-6.74c-1.284-0.748-2.889-0.32-3.637,0.964C7.526,27.266,7.954,28.87,9.239,29.619z"/>
	<path d="M90.761,70.487l-11.554-6.739c-1.285-0.749-2.89-0.321-3.638,0.963c-0.749,1.283-0.321,2.889,0.962,3.638l11.555,6.74
		c0.429,0.213,0.856,0.32,1.284,0.32c0.963,0,1.817-0.428,2.353-1.391C92.473,72.842,92.045,71.236,90.761,70.487z"/>
	<path d="M50,20.632c1.498,0,2.675-1.177,2.675-2.674V4.585c0-1.498-1.177-2.675-2.675-2.675s-2.675,1.177-2.675,2.675v13.373
		C47.325,19.455,48.501,20.632,50,20.632z"/>
</g>
</svg>
