<?xml version="1.0" encoding="utf-8"?>
<!-- Generator: Adobe Illustrator 16.0.0, SVG Export Plug-In . SVG Version: 6.00 Build 0)  -->
<!DOCTYPE svg PUBLIC "-//W3C//DTD SVG 1.1//EN" "http://www.w3.org/Graphics/SVG/1.1/DTD/svg11.dtd">
<svg version="1.1" id="Layer_1" xmlns="http://www.w3.org/2000/svg" xmlns:xlink="http://www.w3.org/1999/xlink" x="0px" y="0px"
	 width="100px" height="100px" viewBox="0 0 100 100" enable-background="new 0 0 100 100" xml:space="preserve">
<g>
	<path d="M90.21,31.253c1.377-1.543,2.465-3.296,3.234-5.215c0.024-0.059,0.036-0.122,0.036-0.186v-0.299
		c3.328-8.97-0.914-18.982-9.687-22.828c-2.923-1.278-6.032-1.75-9.332-1.318l-1.987,0.389c-0.268,0.052-0.444,0.31-0.396,0.578
		l0.354,1.999c0.403,1.987,0.391,4.001-0.036,5.982c-0.216,0.941-0.521,1.869-0.907,2.757c-0.114,0.264-0.24,0.528-0.375,0.788
		c-6.496-3.084-13.713-4.713-20.905-4.713l-0.305,0.001c-24.974,0-45.292,18.57-45.292,41.396c0,21.558,18.476,39.742,42.098,41.397
		h2.766c0.158,0,0.306-0.074,0.4-0.201c0.094-0.126,0.124-0.29,0.079-0.44l-0.781-2.653c-0.471-1.562-0.712-3.178-0.718-4.79
		c0.171-6.898,4.198-13.133,10.345-16.153l-5.295,22.377c-0.79,3.409,1.332,6.857,4.738,7.689l3.961,0.905
		c0.229,0.021,0.458,0.031,0.688,0.031s0.459-0.01,0.648-0.029c3.021-0.03,5.574-2.114,6.208-5.059l6.539-27.761
		c3.466,1.077,6.613,3.018,9.128,5.636l1.713,1.791c0.106,0.111,0.252,0.164,0.412,0.152c0.153-0.016,0.291-0.101,0.373-0.231
		l1.321-2.098C97.079,59,97.443,43.748,90.21,31.253z M43.74,86.616C24.177,83.922,9.507,68.538,9.507,50.585
		c0-20.127,18.122-36.502,40.397-36.502c6.13,0.006,12.308,1.328,17.913,3.826l-0.802,0.81l-0.35,0.525
		c-2.3,1.923-3.622,4.738-3.628,7.703c-0.022,0.309-0.022,0.618,0.001,0.942c0.276,2.691,1.745,5.14,3.968,6.656
		c-0.495,0.687-0.85,1.47-1.036,2.293l-5.855,24.923c-9.655,3.105-16.294,11.956-16.554,22.125
		C43.56,84.801,43.62,85.716,43.74,86.616z M89.021,23.542l-0.208,0.461c-0.671,1.815-1.772,3.473-3.184,4.795
		c-0.055,0.051-0.098,0.115-0.125,0.186l-0.15,0.392c-2.653,2.329-6.145,3.499-9.686,3.223c-0.083-0.163-0.251-0.275-0.447-0.275
		h-0.686l-1.188-0.26c-1.124-0.26-2.208-0.676-3.224-1.236c-1.305-0.708-2.154-2.015-2.271-3.456v-0.495
		c0.03-1.337,0.561-2.601,1.461-3.527l0.542-0.464c1.381-1.165,2.603-2.508,3.632-3.991l1.511-2.269
		c0.278-0.516,0.555-1.032,0.801-1.565c0.483-1.157,0.885-2.36,1.195-3.585c0.389-1.689,0.568-3.42,0.536-5.154
		c1.088,0.082,2.16,0.297,3.192,0.644c3.326,1.115,6.02,3.458,7.583,6.598C89.87,16.703,90.117,20.264,89.021,23.542z M58.22,91.207
		l6.349-26.877l6.072-26.351c0.164-0.617,0.723-1.048,1.359-1.048c0.113,0,0.226,0.014,0.343,0.042l3.929,0.903
		c0.053,0.008,0.105,0.02,0.156,0.035c0.724,0.216,1.138,0.98,0.916,1.732L64.918,92.729c-0.161,0.67-0.754,1.139-1.443,1.139
		c-0.102,0-0.204-0.011-0.299-0.03l-3.914-0.861C58.49,92.778,58.021,91.989,58.22,91.207z M82.335,40.346
		c0.209-1.24,0.043-2.516-0.467-3.654c1.611-0.463,3.137-1.154,4.549-2.059c5.315,9.901,5.325,21.592,0.029,31.499
		c-2.7-2.188-5.855-3.849-9.186-4.834L82.335,40.346z"/>
	<path d="M26.534,49.137c0.001,0,0.001,0,0.002,0c3.614-0.011,6.989-1.958,8.81-5.082c2.842-4.876,1.186-11.157-3.688-13.999
		c-2.325-1.376-5.203-1.748-7.782-1.026c-2.644,0.697-4.855,2.384-6.228,4.754c-2.773,4.885-1.083,11.165,3.771,14.002
		C22.976,48.669,24.745,49.136,26.534,49.137z M21.902,36.23c0.719-1.231,1.872-2.118,3.233-2.492
		c0.457-0.113,0.93-0.173,1.414-0.18l0.156-0.002c0.944,0,1.877,0.247,2.698,0.714c1.225,0.697,2.132,1.878,2.485,3.22
		c0.314,1.405,0.061,2.848-0.724,4.082c-0.705,1.225-1.891,2.137-3.255,2.501c-0.453,0.121-0.918,0.182-1.381,0.182h0
		c-2.414,0-4.535-1.631-5.158-3.966C21.002,38.91,21.192,37.467,21.902,36.23z"/>
	<path d="M56.93,25.605c-0.699-2.603-2.438-4.866-4.771-6.21c-1.555-0.897-3.321-1.371-5.106-1.371
		c-3.653,0-7.055,1.963-8.877,5.125c-2.805,4.887-1.115,11.151,3.76,13.959c1.524,0.914,3.27,1.396,5.048,1.396c0,0,0.039,0,0.039,0
		c0.915-0.002,1.824-0.126,2.701-0.369C55.154,36.662,58.387,31.041,56.93,25.605z M42.431,25.518
		c0.704-1.226,1.89-2.138,3.254-2.501c0.453-0.121,0.919-0.183,1.383-0.183c2.413,0,4.533,1.629,5.156,3.963
		c0.001,0.005,0.002,0.01,0.003,0.014c0.762,2.845-0.933,5.78-3.78,6.542c-0.455,0.124-0.925,0.187-1.396,0.187
		c-0.938,0-1.865-0.249-2.679-0.72c-1.234-0.715-2.117-1.869-2.483-3.249C41.522,28.192,41.714,26.753,42.431,25.518z
		 M46.983,38.002L46.983,38.002v0.002V38.002z"/>
	<path d="M30.428,52.033c-5.645,0-10.236,4.592-10.236,10.236c0,5.646,4.592,10.238,10.236,10.238
		c5.646,0,10.238-4.593,10.238-10.238C40.667,56.625,36.074,52.033,30.428,52.033z M30.428,67.612c-2.945,0-5.342-2.397-5.342-5.343
		s2.396-5.343,5.342-5.343c2.947,0,5.344,2.397,5.344,5.343S33.375,67.612,30.428,67.612z"/>
</g>
</svg>
