<?xml version="1.0" encoding="utf-8"?>
<!-- Generator: Adobe Illustrator 16.0.0, SVG Export Plug-In . SVG Version: 6.00 Build 0)  -->
<!DOCTYPE svg PUBLIC "-//W3C//DTD SVG 1.1//EN" "http://www.w3.org/Graphics/SVG/1.1/DTD/svg11.dtd">
<svg version="1.1" id="Layer_1" xmlns="http://www.w3.org/2000/svg" xmlns:xlink="http://www.w3.org/1999/xlink" x="0px" y="0px"
	 width="100px" height="100px" viewBox="0 0 100 100" enable-background="new 0 0 100 100" xml:space="preserve">
<g id="concept">
	<path d="M0.258,55.799c0,12.903,10.973,23.368,24.504,23.368c5.401,0,10.379-1.688,14.43-4.517
		c3.526,2.817,8.069,4.517,13.027,4.517c8.14,0,15.14-4.571,18.388-11.157c2.622,1.595,5.729,2.537,9.071,2.537
		c9.31,0,16.857-7.2,16.857-16.079c0-7.462-5.34-13.72-12.566-15.531c1.367-3.244,2.139-6.78,2.139-10.487
		c0-15.563-13.227-28.178-29.545-28.178c-9.397,0-17.749,4.2-23.162,10.72c-2.925-2.142-6.578-3.427-10.552-3.427
		c-9.598,0-17.378,7.421-17.378,16.575c0,4.849,2.194,9.198,5.675,12.229C4.582,40.561,0.255,47.696,0.258,55.799z"/>
	<path d="M77.56,79.079c4.154,0,7.524,3.216,7.524,7.177c0,3.964-3.37,7.175-7.524,7.175c-4.157,0-7.526-3.211-7.526-7.175
		C70.033,82.295,73.402,79.079,77.56,79.079z"/>
	<ellipse cx="95.267" cy="95.46" rx="4.475" ry="4.269"/>
</g>
</svg>
