<?xml version="1.0" encoding="utf-8"?>
<!-- Generator: Adobe Illustrator 16.0.0, SVG Export Plug-In . SVG Version: 6.00 Build 0)  -->
<!DOCTYPE svg PUBLIC "-//W3C//DTD SVG 1.1//EN" "http://www.w3.org/Graphics/SVG/1.1/DTD/svg11.dtd">
<svg version="1.1" id="Layer_1" xmlns="http://www.w3.org/2000/svg" xmlns:xlink="http://www.w3.org/1999/xlink" x="0px" y="0px"
	 width="100px" height="100px" viewBox="0 0 100 100" enable-background="new 0 0 100 100" xml:space="preserve">
<g id="event">
	<path d="M16.858,100h66.283c9.151,0,16.572-7.462,16.572-16.667V25.001c0-9.206-7.421-16.668-16.572-16.668h-4.143V4.168
		C78.998,1.866,77.145,0,74.854,0c-2.287,0-4.142,1.866-4.142,4.168v4.165h-16.57V4.168C54.143,1.866,52.287,0,49.999,0
		s-4.143,1.866-4.143,4.168v4.165h-16.57V4.168C29.286,1.866,27.431,0,25.143,0s-4.142,1.866-4.142,4.168v4.165h-4.143
		c-9.152,0-16.571,7.462-16.571,16.668v58.332C0.287,92.537,7.706,100,16.858,100z M83.141,91.667H16.858
		c-4.576,0-8.286-3.73-8.286-8.333V41.667h82.854v41.666C91.426,87.936,87.718,91.667,83.141,91.667z M16.858,16.668h4.143v4.166
		c0,2.3,1.854,4.167,4.142,4.167s4.143-1.867,4.143-4.167v-4.166h16.57v4.166c0,2.3,1.854,4.167,4.143,4.167
		s4.144-1.867,4.144-4.167v-4.166h16.57v4.166c0,2.3,1.854,4.167,4.142,4.167c2.29,0,4.144-1.867,4.144-4.167v-4.166h4.143
		c4.577,0,8.285,3.73,8.285,8.333v8.333H8.572v-8.333C8.572,20.398,12.282,16.668,16.858,16.668z"/>
	<path d="M56.48,65.458l3.636-3.578c1.787-1.76,1.787-4.615,0-6.374c-1.791-1.763-4.69-1.763-6.479-0.002l-3.636,3.577l-3.636-3.577
		c-1.789-1.761-4.689-1.761-6.479,0.002c-1.788,1.758-1.788,4.613,0,6.374l3.636,3.578l-3.416,3.361
		c-1.789,1.76-1.789,4.615,0,6.376c1.789,1.758,4.689,1.76,6.479,0l3.416-3.361l3.416,3.361c1.791,1.76,4.69,1.758,6.479,0
		c1.789-1.761,1.789-4.616,0-6.376L56.48,65.458z"/>
</g>
</svg>
