<?xml version="1.0" encoding="UTF-8" standalone="no"?>
<!-- Generator: Adobe Illustrator 16.0.0, SVG Export Plug-In . SVG Version: 6.00 Build 0)  -->

<svg
   xmlns:dc="http://purl.org/dc/elements/1.1/"
   xmlns:cc="http://creativecommons.org/ns#"
   xmlns:rdf="http://www.w3.org/1999/02/22-rdf-syntax-ns#"
   xmlns:svg="http://www.w3.org/2000/svg"
   xmlns="http://www.w3.org/2000/svg"
   xmlns:sodipodi="http://sodipodi.sourceforge.net/DTD/sodipodi-0.dtd"
   xmlns:inkscape="http://www.inkscape.org/namespaces/inkscape"
   version="1.1"
   id="Layer_1"
   x="0px"
   y="0px"
   width="100px"
   height="100px"
   viewBox="0 0 100 100"
   enable-background="new 0 0 100 100"
   xml:space="preserve"
   sodipodi:docname="holdings.svg"
   inkscape:version="0.92.4 (5da689c313, 2019-01-14)"><metadata
   id="metadata70"><rdf:RDF><cc:Work
       rdf:about=""><dc:format>image/svg+xml</dc:format><dc:type
         rdf:resource="http://purl.org/dc/dcmitype/StillImage" /><dc:title></dc:title></cc:Work></rdf:RDF></metadata><defs
   id="defs68" /><sodipodi:namedview
   pagecolor="#ffffff"
   bordercolor="#666666"
   borderopacity="1"
   objecttolerance="10"
   gridtolerance="10"
   guidetolerance="10"
   inkscape:pageopacity="0"
   inkscape:pageshadow="2"
   inkscape:window-width="1030"
   inkscape:window-height="751"
   id="namedview66"
   showgrid="false"
   inkscape:zoom="2.36"
   inkscape:cx="-2.3305085"
   inkscape:cy="50"
   inkscape:window-x="662"
   inkscape:window-y="223"
   inkscape:window-maximized="0"
   inkscape:current-layer="g91" />

<g
   style="fill:#000000"
   id="g91"
   transform="translate(3.7322034e-5,-0.42550953)"><g
     id="g3798"
     transform="translate(-0.63559574,-5.1793719)"><path
       style="stroke-width:1.09040725"
       inkscape:connector-curvature="0"
       d="m 99.443564,29.506259 a 7.7442417,8.0477764 0 1 0 -15.488483,0 V 44.779244 A 7.7442397,8.0477743 0 0 0 82.575237,44.47912 7.6586679,7.9588486 0 0 0 76.30711,46.780073 L 57.909192,65.865747 a 13.787742,14.328151 0 0 0 -4.064656,10.193107 v 10.915627 a 2.6741159,2.7789276 0 0 0 5.348231,0 V 76.058854 A 8.4715992,8.8036425 0 0 1 61.69574,69.745131 L 80.061568,50.703919 a 2.3673887,2.4601782 0 1 1 3.347993,3.479216 L 72.713097,65.298846 a 2.677494,2.7824381 0 0 0 3.786549,3.934961 l 10.696463,-11.11571 a 7.6907573,7.9921957 0 0 0 2.192776,-5.046532 1.4868084,1.5450837 0 0 0 0,-0.333471 l -0.08557,-23.231835 a 2.396009,2.4899203 0 0 1 4.792018,0 v 28.900846 a 10.300694,10.704429 0 0 1 -3.037797,7.614262 L 76.30711,81.416626 a 2.6741159,2.7789276 0 0 0 -0.780843,1.967481 v 3.590374 a 2.674116,2.7789277 0 0 0 5.348232,0 V 84.54014 L 94.833385,69.989676 a 15.606141,16.217822 0 0 0 4.599469,-11.549224 z"
       id="path74" /><path
       style="stroke-width:1.09040725"
       inkscape:connector-curvature="0"
       d="M 10.801966,21.558526 A 7.7442397,8.0477743 0 0 0 1.8276323,29.506259 V 58.407105 A 15.606141,16.217822 0 0 0 6.4271119,69.956329 L 20.428784,84.54014 v 2.434341 a 2.6741159,2.7789276 0 0 0 5.348231,0 V 83.384107 A 2.6741159,2.7789276 0 0 0 24.964084,81.416626 L 10.213661,66.054714 A 10.300694,10.704429 0 0 1 7.1758649,58.440452 V 29.539606 a 2.396008,2.4899195 0 1 1 4.7920161,0 l -0.128358,23.076215 a 1.3263615,1.3783481 0 0 0 0,0.244545 7.6907573,7.9921957 0 0 0 2.214168,5.291078 l 10.696464,11.11571 A 2.6813424,2.7864373 0 0 0 28.51531,65.298846 L 17.818846,54.183135 a 2.3853114,2.4788034 0 0 1 -0.320894,-3.056819 2.3639184,2.456572 0 0 1 3.668888,-0.411282 l 18.408614,19.030097 a 8.4715992,8.8036425 0 0 1 2.502972,6.313723 v 10.915627 a 2.6741159,2.7789276 0 0 0 5.348231,0 V 76.058854 A 13.787742,14.328151 0 0 0 43.362001,65.865747 L 24.964084,46.780073 A 7.6586679,7.9588486 0 0 0 18.674564,44.47912 7.7442397,8.0477743 0 0 0 17.29472,44.779244 V 29.506259 a 7.7121503,8.0144272 0 0 0 -6.492754,-7.947733 z"
       id="path76" /></g></g></svg>