<?xml version="1.0" encoding="utf-8"?>
<!-- Generator: Adobe Illustrator 16.0.0, SVG Export Plug-In . SVG Version: 6.00 Build 0)  -->
<!DOCTYPE svg PUBLIC "-//W3C//DTD SVG 1.1//EN" "http://www.w3.org/Graphics/SVG/1.1/DTD/svg11.dtd">
<svg version="1.1" id="Layer_1" xmlns="http://www.w3.org/2000/svg" xmlns:xlink="http://www.w3.org/1999/xlink" x="0px" y="0px"
	 width="100px" height="100px" viewBox="0 0 100 100" enable-background="new 0 0 100 100" xml:space="preserve">
<g id="language">
	<path fill="none" stroke="#000000" stroke-width="8" stroke-linecap="round" stroke-linejoin="round" stroke-miterlimit="10" d="
		M81.23,4.271H18.77c-7.71,0-13.937,6.065-13.937,13.574v42.455c0,7.511,6.227,13.575,13.937,13.575h13.935
		c-0.101,3.464-0.791,7.988-2.668,12.803c-1.089,2.6-0.298,5.487,1.877,7.412c1.285,1.06,2.867,1.638,4.446,1.638
		c1.187,0,2.275-0.289,3.361-0.866c9.686-5.296,17.791-14.056,23.128-20.891H81.23c7.71,0,13.937-6.065,13.937-13.574V17.846
		C95.167,10.337,88.94,4.271,81.23,4.271z"/>
	<path stroke="#000000" stroke-width="2" stroke-miterlimit="10" d="M50.333,15.697c-13.78,0-24.95,10.86-24.95,24.256
		c0,13.397,11.17,24.256,24.95,24.256c13.781,0,24.951-10.858,24.951-24.256C75.284,26.558,64.114,15.697,50.333,15.697z
		 M67.975,27.369c2.402,3.247,3.863,7.003,4.176,11.164h-9.813c-0.104-2.943-0.522-5.785-1.251-8.424
		c2.297-0.711,4.592-1.624,6.68-2.639C67.766,27.471,67.872,27.471,67.975,27.369z M65.991,25.034c-0.104,0-0.104,0.102-0.209,0.102
		c-1.773,0.913-3.652,1.624-5.636,2.131c-1.044-2.739-2.401-5.277-3.967-7.611c-0.104-0.102-0.104-0.203-0.208-0.305
		C59.833,20.365,63.279,22.293,65.991,25.034z M41.356,38.533c0.104-2.741,0.521-5.278,1.251-7.714
		c2.507,0.406,5.012,0.711,7.726,0.711c2.715,0,5.323-0.203,7.726-0.711c0.729,2.436,1.148,5.074,1.252,7.714H41.356z M59.31,41.476
		c-0.208,2.74-0.627,5.277-1.252,7.714c-2.506-0.406-5.011-0.71-7.726-0.71c-2.61,0-5.219,0.202-7.726,0.71
		c-0.729-2.437-1.147-5.075-1.251-7.714H59.31z M49.185,18.641c0.417,0,0.73,0,1.147,0s0.73,0,1.148,0
		c0,0.102,0.104,0.203,0.208,0.305c2.298,2.537,4.072,5.582,5.43,9.032c-2.193,0.405-4.385,0.609-6.786,0.609
		c-2.297,0-4.593-0.204-6.786-0.609c1.358-3.45,3.132-6.495,5.431-9.032C48.977,18.844,49.081,18.742,49.185,18.641z M44.696,19.351
		c-0.105,0.102-0.105,0.203-0.209,0.305c-1.566,2.334-2.923,4.872-3.967,7.611c-1.984-0.507-3.862-1.218-5.637-2.131
		c-0.105,0-0.105-0.102-0.209-0.102C37.387,22.293,40.833,20.365,44.696,19.351z M32.794,27.369c0.105,0,0.105,0.102,0.209,0.102
		c2.087,1.116,4.279,1.928,6.681,2.639c-0.73,2.639-1.253,5.48-1.253,8.424H28.62C28.932,34.372,30.394,30.515,32.794,27.369z
		 M32.691,52.64c-2.402-3.248-3.863-7.003-4.176-11.164h9.813c0.104,2.842,0.626,5.685,1.252,8.424
		c-2.297,0.71-4.593,1.522-6.68,2.639C32.794,52.538,32.794,52.64,32.691,52.64z M34.674,54.872c0.104,0,0.104-0.101,0.209-0.101
		c1.774-0.914,3.652-1.624,5.637-2.132c1.044,2.74,2.4,5.277,3.967,7.612c0.104,0.101,0.104,0.202,0.209,0.304
		C40.833,59.541,37.387,57.612,34.674,54.872z M51.481,61.267c-0.418,0-0.731,0-1.148,0s-0.73,0-1.147,0
		c0-0.102-0.104-0.202-0.208-0.305c-2.299-2.537-4.072-5.582-5.431-9.033c2.193-0.405,4.386-0.608,6.786-0.608
		c2.401,0,4.593,0.203,6.786,0.608c-1.357,3.451-3.132,6.496-5.43,9.033C51.689,61.064,51.585,61.165,51.481,61.267z M55.971,60.556
		c0.104-0.102,0.104-0.203,0.208-0.304c1.565-2.335,2.923-4.872,3.967-7.612c1.983,0.508,3.862,1.218,5.636,2.132
		c0.105,0,0.105,0.101,0.209,0.101C63.279,57.512,59.833,59.541,55.971,60.556z M67.975,52.64c-0.104,0-0.104-0.102-0.209-0.102
		c-2.088-1.116-4.279-1.929-6.68-2.639c0.729-2.739,1.147-5.48,1.251-8.424h9.813C71.838,45.637,70.377,49.494,67.975,52.64z"/>
</g>
</svg>
