<?xml version="1.0" encoding="utf-8"?>
<!-- Generator: Adobe Illustrator 16.0.0, SVG Export Plug-In . SVG Version: 6.00 Build 0)  -->
<!DOCTYPE svg PUBLIC "-//W3C//DTD SVG 1.1//EN" "http://www.w3.org/Graphics/SVG/1.1/DTD/svg11.dtd">
<svg version="1.1" id="Layer_1" xmlns="http://www.w3.org/2000/svg" xmlns:xlink="http://www.w3.org/1999/xlink" x="0px" y="0px"
	 width="100px" height="100px" viewBox="0 0 100 100" enable-background="new 0 0 100 100" xml:space="preserve">
<g id="object">
	<path d="M99.513,52.566L66.455,1.429c-0.56-0.863-1.517-1.386-2.548-1.386s-1.987,0.522-2.549,1.386
		c0,0-12.013,18.697-16.089,24.882c-0.541,0.82-1.009,1.56-1.411,2.221c-17.597-3.72-43.717,0.086-43.848,11.42
		c-0.001,0.029-0.009,0.056-0.009,0.084v46.833c0,0.029,0.008,0.056,0.009,0.085c0.1,8.536,15.021,13,29.764,13
		c14.793,0,29.768-4.494,29.772-13.085c0-0.03-0.005-0.06-0.005-0.09V69.979c1.682,0.037,3.232,0.054,4.365,0.054
		c22.94,0,36.096-5.768,36.091-15.82C99.998,53.63,99.83,53.056,99.513,52.566z M29.774,33.019c14.675,0,23.667,4.526,23.703,7.002
		c0,0.005-0.002,0.01-0.002,0.016v0.022c-0.053,2.478-9.04,6.996-23.701,6.996c-14.704,0-23.706-4.545-23.706-7.018
		S15.07,33.019,29.774,33.019z M6.068,48.262c5.726,3.209,14.746,4.861,23.706,4.861c8.957,0,17.975-1.65,23.701-4.858v30.431
		C42.053,72.416,17.484,72.418,6.068,78.7V48.262z M29.774,93.889c-14.704,0-23.706-4.545-23.706-7.019s9.002-7.018,23.706-7.018
		c14.661,0,23.648,4.518,23.701,6.995v0.023c0,0.005,0.002,0.01,0.002,0.016C53.441,89.362,44.449,93.889,29.774,93.889z
		 M63.907,63.97c-1.18,0-2.727-0.019-4.365-0.057V40.125c0-0.03,0.005-0.059,0.005-0.088c0-4.373-3.86-7.63-9.61-9.777
		c0.14-0.219,0.282-0.438,0.428-0.654L63.907,8.667l29.95,46.334C92.825,60.4,81.052,63.97,63.907,63.97z"/>
	<path d="M49.309,72.819c1.675,0,3.033-1.357,3.033-3.033v-12.67c0-1.675-1.358-3.033-3.033-3.033s-3.033,1.358-3.033,3.033v12.67
		C46.275,71.462,47.634,72.819,49.309,72.819z"/>
</g>
</svg>
