<?xml version="1.0" encoding="utf-8"?>
<!-- Generator: Adobe Illustrator 16.0.0, SVG Export Plug-In . SVG Version: 6.00 Build 0)  -->
<!DOCTYPE svg PUBLIC "-//W3C//DTD SVG 1.1//EN" "http://www.w3.org/Graphics/SVG/1.1/DTD/svg11.dtd">
<svg version="1.1" id="Layer_1" xmlns="http://www.w3.org/2000/svg" xmlns:xlink="http://www.w3.org/1999/xlink" x="0px" y="0px"
	 width="100px" height="100px" viewBox="0 0 100 100" enable-background="new 0 0 100 100" xml:space="preserve">
<g id="place">
	<path d="M70.837,71.654c-2.086,2.593-4.113,4.985-6.012,7.139c2.079,0.435,4.116,0.995,6.097,1.677
		c1.845,0.617,3.594,1.417,5.206,2.38c1.361,0.852,1.631,2.455,0.602,3.582c-0.172,0.188-0.375,0.355-0.602,0.498
		c-1.618,0.958-3.364,1.756-5.206,2.378C64.276,91.528,57.166,92.642,50,92.58c-7.158,0.095-14.269-0.979-20.922-3.165
		c-1.842-0.622-3.59-1.422-5.206-2.38c-1.362-0.852-1.631-2.455-0.602-3.582c0.171-0.188,0.374-0.355,0.602-0.497
		c1.612-0.962,3.361-1.762,5.206-2.379c1.98-0.683,4.018-1.243,6.096-1.678c-1.897-2.152-3.925-4.544-6.011-7.138
		C13.432,74.069,2.547,79.103,2.547,84.931c0,8.173,21.268,14.787,47.453,14.787s47.453-6.614,47.453-14.787
		C97.453,79.103,86.568,74.069,70.837,71.654z"/>
	<path d="M50.002,0.281c-16.972,0-30.729,12.713-30.729,28.396c0,21.367,25.11,50.878,29.893,56.401
		c0.368,0.415,1.031,0.476,1.48,0.135c0.053-0.04,0.103-0.086,0.145-0.135c4.867-5.523,29.893-35.034,29.893-56.347
		C80.717,13.05,66.985,0.313,50.015,0.281C50.011,0.281,50.006,0.281,50.002,0.281z M50.002,42.111
		c-8.486,0-15.365-6.356-15.365-14.197s6.879-14.197,15.365-14.197c8.481,0,15.357,6.35,15.365,14.186
		c0.006,7.842-6.867,14.203-15.353,14.208C50.011,42.111,50.006,42.111,50.002,42.111z"/>
</g>
</svg>
