<?xml version="1.0" encoding="utf-8"?>
<!-- Generator: Adobe Illustrator 16.0.0, SVG Export Plug-In . SVG Version: 6.00 Build 0)  -->
<!DOCTYPE svg PUBLIC "-//W3C//DTD SVG 1.1//EN" "http://www.w3.org/Graphics/SVG/1.1/DTD/svg11.dtd">
<svg version="1.1" id="Layer_1" xmlns="http://www.w3.org/2000/svg" xmlns:xlink="http://www.w3.org/1999/xlink" x="0px" y="0px"
	 width="100px" height="100px" viewBox="0 0 100 100" enable-background="new 0 0 100 100" xml:space="preserve">
<g id="time">
	<g>
		<path d="M49.997,0.696c-27.186,0-49.303,22.117-49.303,49.305c0,2.502,2.036,4.537,4.538,4.537c2.503,0,4.539-2.035,4.539-4.537
			c0-22.18,18.044-40.227,40.224-40.227s40.227,18.047,40.227,40.227S72.179,90.225,49.997,90.225
			c-11.648,0-22.561-4.963-30.212-13.681l1.915-1.432c1.133-0.847,1.709-2.189,1.545-3.594c-0.167-1.404-1.042-2.578-2.342-3.135
			l-13.42-5.756c-1.538-0.657-3.371-0.239-4.475,1.002c-0.737,0.832-1.085,1.945-0.953,3.055l1.726,14.499
			c0.233,1.969,1.907,3.454,3.893,3.454c0.844,0,1.65-0.271,2.336-0.781l2.485-1.859c9.396,11.021,22.972,17.307,37.506,17.307
			c27.186,0,49.305-22.116,49.305-49.303C99.306,22.813,77.184,0.696,49.997,0.696z"/>
		<g>
			<g>
				<path d="M77.04,36.476c-0.068-0.222-0.172-0.462-0.308-0.719c-0.666-1.3-2.001-2.104-3.455-2.104
					c-0.649,0-1.282,0.171-1.83,0.444l-20.012,9.817c-0.959-0.257-1.967-0.257-2.926-0.035l-13.579-5.113
					c-0.838-0.359-1.745-0.411-2.617-0.154c-1.113,0.324-2.003,1.111-2.464,2.154c-0.838,1.949,0.051,4.226,1.966,5.047l12.331,6.09
					c0.872,2.394,3.182,4.036,5.764,4.036c0.581,0,1.164-0.068,1.728-0.239c1.762-0.53,3.216-1.83,3.918-3.54l19.549-11.117
					C76.749,40.171,77.569,38.255,77.04,36.476z"/>
			</g>
		</g>
	</g>
</g>
</svg>
