<?xml version="1.0" encoding="utf-8"?>
<!-- Generator: Adobe Illustrator 16.0.0, SVG Export Plug-In . SVG Version: 6.00 Build 0)  -->
<!DOCTYPE svg PUBLIC "-//W3C//DTD SVG 1.1//EN" "http://www.w3.org/Graphics/SVG/1.1/DTD/svg11.dtd">
<svg version="1.1" id="Layer_1" xmlns="http://www.w3.org/2000/svg" xmlns:xlink="http://www.w3.org/1999/xlink" x="0px" y="0px"
	 width="100px" height="100px" viewBox="0 0 100 100" enable-background="new 0 0 100 100" xml:space="preserve">
<g id="work_1_">
	<g id="work">
		<path stroke="#000000" stroke-linecap="round" stroke-linejoin="round" stroke-miterlimit="10" d="M97.637,36.729L97.637,36.729
			c-2.374-2.195-6.039-2.195-8.196,0L57.086,66.665l-3.234,10.576l11.431-2.993l32.354-29.936
			C100.01,42.117,100.01,38.725,97.637,36.729z"/>
		<path fill="none" stroke="#000000" stroke-width="6" stroke-miterlimit="10" d="M49.321,63.471
			c0.217-0.599,0.647-1.197,1.078-1.796L83.4,31.14V6.992C83.4,4.796,81.46,3,79.087,3H7.478C5.104,3,3.164,4.796,3.164,6.992
			v86.016c0,2.195,1.94,3.992,4.313,3.992h71.609c2.373,0,4.313-1.797,4.313-3.992V68.66L70.676,80.436
			c-0.433,0.398-1.079,0.798-1.943,0.998l-19.627,5.188c-0.431,0-0.862,0.2-1.078,0.2c-1.078,0-2.157-0.399-3.02-1.198
			c-1.078-0.998-1.51-2.396-1.078-3.792L49.321,63.471z"/>
	</g>
	<path stroke="#000000" stroke-miterlimit="10" d="M19.125,15.374h48.314c2.373,0,4.314,1.556,4.314,3.458
		c0,1.901-1.941,3.458-4.314,3.458H19.125c-2.373,0-4.314-1.557-4.314-3.458C14.811,16.93,16.752,15.374,19.125,15.374z"/>
	<path stroke="#000000" stroke-miterlimit="10" d="M34.87,64.763H19.125c-2.373,0-4.314-1.557-4.314-3.458s1.941-3.458,4.314-3.458
		H34.87c2.373,0,4.314,1.557,4.314,3.458S37.243,64.763,34.87,64.763z"/>
	<path stroke="#000000" stroke-miterlimit="10" d="M19.125,43.526c-2.373,0-4.314-1.557-4.314-3.457
		c0-1.903,1.941-3.459,4.314-3.459h31.489c2.374,0,4.314,1.556,4.314,3.459c0,1.9-1.94,3.457-4.314,3.457H19.125z"/>
</g>
</svg>
