<?xml version="1.0" encoding="utf-8"?>
<!-- Generator: Adobe Illustrator 16.0.0, SVG Export Plug-In . SVG Version: 6.00 Build 0)  -->
<!DOCTYPE svg PUBLIC "-//W3C//DTD SVG 1.1//EN" "http://www.w3.org/Graphics/SVG/1.1/DTD/svg11.dtd">
<svg version="1.1" id="Layer_1" xmlns="http://www.w3.org/2000/svg" xmlns:xlink="http://www.w3.org/1999/xlink" x="0px" y="0px"
	 width="100px" height="100px" viewBox="0 0 100 100" enable-background="new 0 0 100 100" xml:space="preserve">
<g>
	<path d="M93.186,12.456C81.644,4.761,65.644,0.348,49.289,0.348c-18.333,0-33.983,6.27-42.516,12.137l-1.517,1.043v34.694
		c0,23.92,18.481,36.254,31.975,45.26c2.449,1.634,4.761,3.177,6.686,4.615c1.359,1.021,3.731,1.555,5.372,1.555
		c1.772,0,3.868-0.544,5.228-1.36c1.299-0.788,2.712-1.61,4.203-2.477c14.345-8.347,36.024-20.96,36.024-47.592V13.495
		L93.186,12.456z M87.744,48.222c0,22.606-18.81,33.55-32.545,41.542c-1.529,0.89-2.978,1.733-4.286,2.526
		c-0.231,0.126-0.994,0.361-1.625,0.361c-0.393,0-1.029-0.15-1.319-0.265c-2.046-1.52-4.382-3.079-6.853-4.728
		c-12.858-8.581-28.861-19.261-28.861-39.438V17.258c7.934-4.961,21.352-9.911,37.033-9.911c14.274,0,28.165,3.604,38.456,9.935
		V48.222z"/>
	<path d="M34.547,39.099c-0.188,0.027-0.345,0.159-0.404,0.34c-0.059,0.181-0.01,0.38,0.126,0.513l7.504,7.313L40,57.592
		c-0.032,0.188,0.045,0.377,0.199,0.489c0.154,0.112,0.358,0.127,0.527,0.038L50,53.243l9.274,4.876
		c0.073,0.039,0.153,0.058,0.233,0.058c0.104,0,0.207-0.032,0.294-0.096c0.154-0.112,0.231-0.301,0.199-0.489l-1.771-10.327
		l7.502-7.313c0.136-0.133,0.185-0.332,0.126-0.513c-0.059-0.181-0.215-0.313-0.404-0.34l-10.368-1.504l-4.637-9.396
		c-0.168-0.342-0.729-0.342-0.896,0l-4.637,9.396L34.547,39.099z"/>
</g>
</svg>
