<?xml version="1.0" encoding="utf-8"?>
<!-- Generator: Adobe Illustrator 16.0.0, SVG Export Plug-In . SVG Version: 6.00 Build 0)  -->
<!DOCTYPE svg PUBLIC "-//W3C//DTD SVG 1.1//EN" "http://www.w3.org/Graphics/SVG/1.1/DTD/svg11.dtd">
<svg version="1.1" id="Layer_1" xmlns="http://www.w3.org/2000/svg" xmlns:xlink="http://www.w3.org/1999/xlink" x="0px" y="0px"
	 width="100px" height="100px" viewBox="0 0 100 100" enable-background="new 0 0 100 100" xml:space="preserve">
<g id="aut_instance">
	<g id="instance_1_">
		
			<rect x="5.514" y="40.693" fill="none" stroke="#000000" stroke-width="6" stroke-linecap="round" stroke-linejoin="round" stroke-miterlimit="10" width="60.829" height="46.758"/>
		
			<polyline fill="none" stroke="#000000" stroke-width="6" stroke-linecap="round" stroke-linejoin="round" stroke-miterlimit="10" points="
			19.502,26.703 80.332,26.703 80.332,73.463 		"/>
		
			<polyline fill="none" stroke="#000000" stroke-width="6" stroke-linecap="round" stroke-linejoin="round" stroke-miterlimit="10" points="
			33.658,12.549 94.487,12.549 94.487,59.306 		"/>
	</g>
	<g>
		<path stroke="#000000" stroke-width="2" stroke-miterlimit="10" d="M52.146,50.873c-4.122-2.748-9.835-4.324-15.676-4.324
			c-6.547,0-12.136,2.239-15.182,4.334l-0.542,0.372v12.389c0,8.543,6.599,12.947,11.418,16.162
			c0.875,0.584,1.699,1.135,2.387,1.649c0.485,0.363,1.333,0.555,1.919,0.555c0.632,0,1.381-0.194,1.867-0.486
			c0.464-0.28,0.968-0.574,1.5-0.884c5.123-2.98,12.864-7.484,12.864-16.996V51.244L52.146,50.873z M50.202,63.644
			c0,8.074-6.718,11.98-11.622,14.835c-0.546,0.317-1.063,0.619-1.531,0.902c-0.081,0.044-0.354,0.13-0.579,0.13
			c-0.141,0-0.367-0.054-0.473-0.095c-0.73-0.544-1.563-1.1-2.445-1.688c-4.592-3.064-10.307-6.878-10.307-14.084V52.587
			c2.834-1.771,7.624-3.539,13.225-3.539c5.098,0,10.058,1.288,13.732,3.549V63.644z"/>
		<path stroke="#000000" stroke-miterlimit="10" d="M30.171,60.121c-0.079,0.014-0.145,0.067-0.171,0.146
			c-0.024,0.076-0.004,0.16,0.054,0.217l3.182,3.101l-0.752,4.378c-0.014,0.078,0.02,0.16,0.084,0.208
			c0.066,0.048,0.151,0.054,0.225,0.016l3.932-2.067l3.932,2.067c0.03,0.018,0.064,0.025,0.1,0.025c0.043,0,0.087-0.015,0.125-0.041
			c0.064-0.048,0.097-0.13,0.083-0.208l-0.75-4.378l3.181-3.101c0.058-0.057,0.078-0.141,0.053-0.217
			c-0.025-0.078-0.091-0.132-0.171-0.146l-4.396-0.636L36.914,55.5c-0.07-0.143-0.311-0.143-0.381,0l-1.966,3.985L30.171,60.121z"/>
	</g>
</g>
</svg>
