<?xml version="1.0" encoding="utf-8"?>
<!-- Generator: Adobe Illustrator 16.0.0, SVG Export Plug-In . SVG Version: 6.00 Build 0)  -->
<!DOCTYPE svg PUBLIC "-//W3C//DTD SVG 1.1//EN" "http://www.w3.org/Graphics/SVG/1.1/DTD/svg11.dtd">
<svg version="1.1" id="Layer_1" xmlns="http://www.w3.org/2000/svg" xmlns:xlink="http://www.w3.org/1999/xlink" x="0px" y="0px"
	 width="100px" height="100px" viewBox="0 0 100 100" enable-background="new 0 0 100 100" xml:space="preserve">
<g id="collective">
	<path fill="#010101" d="M50.001,0.487c-5.47,0-9.902,4.434-9.902,9.903c0.005,4.511,3.059,8.447,7.427,9.575v20.458
		c-0.894,0.23-1.751,0.586-2.546,1.055L30.517,27.015c2.292-3.888,1.666-8.833-1.522-12.026c-3.867-3.867-10.137-3.867-14.005,0l0,0
		c-3.867,3.867-3.868,10.138,0,14.005l0,0c3.193,3.186,8.137,3.81,12.022,1.519l14.463,14.463c-0.467,0.797-0.82,1.655-1.05,2.55
		H19.97c-1.128-4.369-5.067-7.424-9.58-7.428c-5.469,0-9.902,4.434-9.902,9.903c0,5.469,4.434,9.902,9.902,9.902
		c4.511-0.005,8.448-3.059,9.576-7.427h20.457c0.231,0.894,0.587,1.75,1.057,2.545L27.016,69.485
		c-3.888-2.292-8.833-1.666-12.026,1.521c-3.867,3.867-3.868,10.138,0,14.005v0.001c3.867,3.867,10.137,3.867,14.004,0
		c0.001,0,0.001,0,0.001,0c3.186-3.194,3.81-8.138,1.519-12.022l14.463-14.464c0.797,0.468,1.654,0.821,2.55,1.05v20.458
		c-1.712,0.439-3.274,1.329-4.526,2.576c-3.866,3.867-3.866,10.136,0,14.003c3.867,3.866,10.136,3.866,14.003,0
		c3.866-3.867,3.866-10.136,0-14.003c-1.251-1.247-2.814-2.136-4.525-2.574V59.579c0.894-0.232,1.75-0.587,2.545-1.057
		l14.466,14.466c-0.9,1.521-1.376,3.255-1.379,5.022c0,5.47,4.434,9.903,9.902,9.903s9.902-4.434,9.902-9.903
		c0-5.469-4.434-9.902-9.902-9.902c-1.768,0.003-3.502,0.479-5.022,1.378l-14.462-14.46c0.467-0.797,0.82-1.655,1.05-2.55h20.458
		c0.439,1.712,1.329,3.274,2.576,4.525c3.867,3.867,10.136,3.867,14.003,0c3.866-3.866,3.866-10.135,0-14.003
		c-3.867-3.866-10.136-3.866-14.003,0c-1.247,1.252-2.136,2.814-2.574,4.526H59.578c-0.231-0.894-0.587-1.75-1.056-2.546
		l14.466-14.465c1.521,0.899,3.255,1.376,5.022,1.379c5.469,0,9.902-4.434,9.902-9.903c0-5.469-4.434-9.901-9.902-9.901
		s-9.902,4.433-9.902,9.901c0.003,1.769,0.479,3.502,1.379,5.024L55.025,41.475c-0.797-0.467-1.654-0.821-2.549-1.051V19.969
		c4.369-1.128,7.423-5.067,7.427-9.579C59.903,4.92,55.47,0.487,50.001,0.487z"/>
</g>
</svg>
