<?xml version="1.0" encoding="utf-8"?>
<!-- Generator: Adobe Illustrator 16.0.0, SVG Export Plug-In . SVG Version: 6.00 Build 0)  -->
<!DOCTYPE svg PUBLIC "-//W3C//DTD SVG 1.1//EN" "http://www.w3.org/Graphics/SVG/1.1/DTD/svg11.dtd">
<svg version="1.1" id="Layer_1" xmlns="http://www.w3.org/2000/svg" xmlns:xlink="http://www.w3.org/1999/xlink" x="0px" y="0px"
	 width="100px" height="100px" viewBox="0 0 100 100" enable-background="new 0 0 100 100" xml:space="preserve">
<g>
	<polygon points="19.262,53.189 43.853,53.189 56.148,53.189 80.74,53.189 80.74,58.373 86.886,58.373 86.886,53.189 86.886,48.005 
		80.74,48.005 56.148,48.005 56.148,42.82 43.853,42.82 43.853,48.005 19.262,48.005 13.115,48.005 13.115,53.189 13.115,58.373 
		19.262,58.373 	"/>
	<path d="M49.993,39.531l0.097,0c8.104-0.05,14.672-6.682,14.64-14.784c-0.032-8.092-6.64-14.675-14.747-14.675
		c-3.927,0.005-7.63,1.563-10.427,4.388c-2.796,2.824-4.318,6.542-4.285,10.469C35.341,32.98,41.945,39.531,49.993,39.531z
		 M49.994,37.027L49.994,37.027v0.004V37.027z"/>
	<path d="M49.982,60.468c-3.927,0.004-7.63,1.563-10.427,4.387c-2.797,2.824-4.319,6.542-4.286,10.47
		c0.071,8.051,6.676,14.602,14.723,14.603l0.097,0c8.107-0.05,14.675-6.683,14.641-14.785C64.7,67.051,58.092,60.468,49.982,60.468z
		 M49.993,87.424L49.993,87.424v0.004V87.424z"/>
	<path d="M15.881,60.468c-3.926,0.004-7.629,1.562-10.425,4.385c-2.797,2.824-4.319,6.543-4.287,10.471
		c0.069,8.052,6.674,14.603,14.722,14.603l0.097,0c8.106-0.05,14.674-6.683,14.641-14.785C30.598,67.051,23.99,60.468,15.881,60.468
		z M15.891,87.424L15.891,87.424v0.004V87.424z"/>
	<path d="M84.084,60.468c-3.927,0.004-7.63,1.563-10.427,4.386c-2.797,2.824-4.319,6.542-4.287,10.471
		c0.072,8.051,6.676,14.602,14.722,14.602l0.097,0c8.106-0.05,14.674-6.683,14.642-14.785C98.8,67.051,92.192,60.468,84.084,60.468z
		 M84.093,87.424L84.093,87.424v0.004V87.424z"/>
</g>
</svg>
