<?xml version="1.0" encoding="utf-8"?>
<!-- Generator: Adobe Illustrator 16.0.0, SVG Export Plug-In . SVG Version: 6.00 Build 0)  -->
<!DOCTYPE svg PUBLIC "-//W3C//DTD SVG 1.1//EN" "http://www.w3.org/Graphics/SVG/1.1/DTD/svg11.dtd">
<svg version="1.1" id="Layer_1" xmlns="http://www.w3.org/2000/svg" xmlns:xlink="http://www.w3.org/1999/xlink" x="0px" y="0px"
	 width="100px" height="100px" viewBox="0 0 100 100" enable-background="new 0 0 100 100" xml:space="preserve">
<g>
	<path fill="#231F20" d="M49.982,35.271c-3.927,0.004-7.63,1.563-10.427,4.387s-4.318,6.542-4.285,10.47
		c0.07,8.051,6.675,14.602,14.723,14.602h0.097c8.108-0.05,14.675-6.683,14.641-14.785C64.701,41.854,58.093,35.271,49.982,35.271z
		 M49.993,62.226L49.993,62.226v0.004V62.226z"/>
	<path fill="#231F20" d="M15.88,35.271c-3.926,0.004-7.628,1.562-10.425,4.386c-2.797,2.824-4.319,6.542-4.287,10.471
		c0.071,8.051,6.675,14.602,14.722,14.602h0.097c8.106-0.05,14.674-6.683,14.641-14.785C30.598,41.854,23.989,35.271,15.88,35.271z
		 M15.891,62.226L15.891,62.226v0.004V62.226z"/>
	<path fill="#231F20" d="M84.085,35.271c-3.927,0.004-7.63,1.563-10.427,4.386c-2.798,2.824-4.32,6.542-4.287,10.471
		c0.072,8.051,6.677,14.602,14.723,14.602h0.097c8.105-0.05,14.674-6.683,14.642-14.785C98.8,41.853,92.192,35.271,84.085,35.271z
		 M84.094,62.226L84.094,62.226v0.004V62.226z"/>
</g>
</svg>
