<?xml version="1.0" encoding="utf-8"?>
<!-- Generator: Adobe Illustrator 16.0.0, SVG Export Plug-In . SVG Version: 6.00 Build 0)  -->
<!DOCTYPE svg PUBLIC "-//W3C//DTD SVG 1.1//EN" "http://www.w3.org/Graphics/SVG/1.1/DTD/svg11.dtd">
<svg version="1.1" id="Layer_1" xmlns="http://www.w3.org/2000/svg" xmlns:xlink="http://www.w3.org/1999/xlink" x="0px" y="0px"
	 width="100px" height="100px" viewBox="0 0 100 100" enable-background="new 0 0 100 100" xml:space="preserve">
<g>
	<path d="M98.87,63.096c0.455-4.555-1.164-9.21-4.729-12.538c-2.672-2.497-5.862-3.794-9.205-4.119
		c2.775-3.85,4.84-8.645,5.414-14.025c-1.225,0.253-2.395,0.6-3.62,0.854c-1.764-7.334-7.586-16.556-14.207-20.761
		c-3.864-2.391-8.677-3.063-13.334-1.442c-4.508,1.654-7.837,5.219-9.23,9.471c-2.885-3.244-6.623-5.837-11.158-7.687
		c-0.075,1.303-0.207,2.516-0.19,3.763c-7.559-0.233-17.97,3.056-23.677,8.467c-3.373,3.087-5.222,7.623-4.828,12.532
		c0.179,2.529,1.108,4.847,2.4,6.938c-4.192,1.961-8.279,5.113-11.452,9.336c1.233,0.369,2.467,0.738,3.644,1.018
		c-2.124,7.343-1.728,18.159,1.975,25.172c2.144,4.08,6.107,7.036,10.885,7.855c8.29,1.417,16.105-4.039,17.522-12.33
		c1.414-8.289-4.042-16.104-12.331-17.521c-5.515-0.992-10.934,1.224-14.218,5.264c0.023-2.401,0.342-4.736,1.01-6.907
		c1.234,0.367,2.467,0.737,3.645,1.016c-0.833-3.382-0.901-7.361,0.458-11.469c3.075,3.758,7.87,5.823,13.017,5.408
		c8.335-0.75,14.495-8.073,13.746-16.407c-0.458-5.625-4.038-10.2-8.798-12.414c2.249-0.634,4.629-0.849,6.942-0.768
		c0.016,1.247-0.06,2.55-0.043,3.798c2.911-1.799,6.566-2.8,10.748-2.743c-0.353,2.479-0.174,5.01,0.776,7.563
		c2.872,7.904,11.543,11.974,19.447,9.104c5.35-1.922,8.83-6.46,9.752-11.68c1.146,2.058,2.019,4.283,2.561,6.587
		c-1.224,0.254-2.394,0.599-3.62,0.854c2.548,2.699,4.67,6.543,5.554,11.025c-4.036-0.023-7.978,1.532-10.908,4.725
		c-5.79,6.091-5.501,15.714,0.534,21.412c4.138,3.855,9.766,5.028,14.772,3.57c-1.314,1.943-2.887,3.669-4.664,5.269
		c-0.856-0.979-1.565-1.924-2.421-2.902c-1.381,3.87-4.191,7.868-8.592,10.711c5.15,1.218,10.888,0.941,16.657-1.113
		c-0.857-0.979-1.566-1.924-2.422-2.902C92.488,80.235,98.036,70.902,98.87,63.096z"/>
</g>
</svg>
