<?xml version="1.0" encoding="utf-8"?>
<!-- Generator: Adobe Illustrator 16.0.0, SVG Export Plug-In . SVG Version: 6.00 Build 0)  -->
<!DOCTYPE svg PUBLIC "-//W3C//DTD SVG 1.1//EN" "http://www.w3.org/Graphics/SVG/1.1/DTD/svg11.dtd">
<svg version="1.1" id="Layer_1" xmlns="http://www.w3.org/2000/svg" xmlns:xlink="http://www.w3.org/1999/xlink" x="0px" y="0px"
	 width="100px" height="100px" viewBox="0 0 100 100" enable-background="new 0 0 100 100" xml:space="preserve">
<path id="undiff" fill="#010101" d="M50,2.028C23.506,2.028,2.028,23.508,2.028,50S23.506,97.972,50,97.972S97.972,76.492,97.972,50
	S76.495,2.028,50,2.028z M57.1,85.238H43.731V71.867H57.1V85.238z M72.735,43.17c-1.666,2.636-5.227,6.218-10.683,10.756
	c-2.824,2.35-4.578,4.235-5.259,5.664c-0.68,1.424-0.987,3.98-0.927,7.661H43.731c-0.032-1.746-0.051-2.808-0.051-3.189
	c0-3.933,0.653-7.171,1.952-9.708c1.3-2.537,3.901-5.393,7.804-8.566c3.905-3.172,6.236-5.25,6.997-6.233
	c1.171-1.556,1.76-3.267,1.76-5.143c0-2.6-1.04-4.828-3.116-6.686c-2.077-1.854-4.876-2.784-8.399-2.784
	c-3.395,0-6.232,0.968-8.519,2.904c-2.283,1.936-3.855,4.887-4.711,8.853L25.17,35.175c0.349-5.679,2.768-10.5,7.258-14.466
	c4.487-3.966,10.381-5.948,17.677-5.948c7.679,0,13.785,2.008,18.322,6.019c4.537,4.014,6.808,8.684,6.808,14.015
	C75.235,37.745,74.397,40.537,72.735,43.17z"/>
</svg>
